<svg width="32" height="32" viewBox="0 0 32 32" fill="none" xmlns="http://www.w3.org/2000/svg">
<path d="M16.583 17.21C17.9079 17.21 18.5707 17.2103 19.0557 17.5117C19.1715 17.5838 19.2799 17.667 19.3786 17.7603C19.6374 18.005 19.6265 18.4062 19.406 18.6859C18.6117 19.6931 17.3816 20.3398 16 20.3398C14.6181 20.3398 13.3872 19.6931 12.5929 18.6857C12.3724 18.4061 12.3616 18.0051 12.6205 17.7607C12.7195 17.6673 12.8282 17.5839 12.9443 17.5117C13.4293 17.2103 14.0921 17.21 15.417 17.21H16.583Z" fill="#7D5E93"/>
<path d="M16 11.6689C16.6017 11.6689 17.179 11.9085 17.6045 12.334C18.0297 12.7594 18.2685 13.3361 18.2686 13.9375C18.2686 14.5392 18.0299 15.1165 17.6045 15.542C17.179 15.9674 16.6017 16.2061 16 16.2061C15.3983 16.206 14.8209 15.9674 14.3955 15.542C13.9701 15.1166 13.7314 14.5391 13.7314 13.9375C13.7315 13.3361 13.9704 12.7594 14.3955 12.334C14.8209 11.9086 15.3983 11.669 16 11.6689Z" fill="#7D5E93"/>
<path fill-rule="evenodd" clip-rule="evenodd" d="M16 9C19.866 9 23 12.134 23 16C23 19.866 19.866 23 16 23C12.134 23 9 19.866 9 16C9 12.134 12.134 9 16 9ZM16 10.3301C12.8685 10.3301 10.3301 12.8685 10.3301 16C10.3301 17.5712 10.9696 18.9926 12.002 20.0195C12.2251 20.2416 12.4682 20.4443 12.7256 20.627C13.6508 21.2831 14.7794 21.6699 16 21.6699C17.2206 21.6699 18.3502 21.2831 19.2754 20.627C19.5326 20.4444 19.7731 20.2414 19.9961 20.0195C21.0293 18.9925 21.6699 17.5719 21.6699 16C21.6699 12.8685 19.1315 10.3301 16 10.3301Z" fill="#7D5E93"/>
</svg>
