<svg width="32" height="32" viewBox="0 0 32 32" fill="none" xmlns="http://www.w3.org/2000/svg">
<path d="M9.83386 20.0058C10.0342 20.0058 10.1497 20.168 10.2255 20.3115C10.3071 20.4662 10.3898 20.6925 10.4921 20.9707C10.546 21.1174 10.5553 21.1277 10.702 21.1816C10.9805 21.2839 11.2074 21.3665 11.3622 21.4482C11.5056 21.524 11.6678 21.6396 11.6678 21.8398C11.6676 22.0399 11.5056 22.1557 11.3622 22.2314C11.2074 22.3131 10.9805 22.3957 10.702 22.498C10.5556 22.5518 10.5459 22.5614 10.4921 22.708C10.3899 22.9862 10.3071 23.2124 10.2255 23.3672C10.1497 23.5107 10.0342 23.6728 9.83386 23.6728C9.6335 23.6728 9.51806 23.5107 9.44226 23.3672C9.3606 23.2124 9.27787 22.9862 9.17566 22.708C9.12178 22.5613 9.11222 22.5519 8.9657 22.498C8.68724 22.3957 8.46031 22.3131 8.30554 22.2314C8.16212 22.1557 8.00107 22.0399 8.00085 21.8398C8.00085 21.6396 8.16211 21.524 8.30554 21.4482C8.46029 21.3665 8.68727 21.2839 8.9657 21.1816C9.11241 21.1277 9.12175 21.1174 9.17566 20.9707C9.27787 20.6925 9.36059 20.4662 9.44226 20.3115C9.51806 20.168 9.6335 20.0058 9.83386 20.0058ZM16.8495 8.82126C17.6162 8.82126 18.0575 9.44103 18.3475 9.9902C18.6603 10.5824 18.9766 11.4491 19.368 12.5146C19.5743 13.076 19.6104 13.1121 20.1718 13.3183C21.2372 13.7098 22.104 14.0261 22.6962 14.3388C23.2453 14.6289 23.8651 15.0702 23.8651 15.8369C23.8651 16.6036 23.2453 17.0449 22.6962 17.3349C22.104 17.6477 21.2372 17.964 20.1718 18.3554C19.6104 18.5617 19.5743 18.5978 19.368 19.1591C18.9766 20.2246 18.6603 21.0914 18.3475 21.6836C18.0575 22.2327 17.6162 22.8525 16.8495 22.8525C16.0828 22.8525 15.6415 22.2327 15.3514 21.6836C15.0387 21.0914 14.7224 20.2246 14.3309 19.1591C14.1247 18.5978 14.0886 18.5617 13.5272 18.3554C12.4618 17.964 11.595 17.6477 11.0028 17.3349C10.4536 17.0449 9.83386 16.6036 9.83386 15.8369C9.83386 15.0702 10.4536 14.6289 11.0028 14.3388C11.595 14.0261 12.4618 13.7098 13.5272 13.3183C14.0886 13.1121 14.1247 13.076 14.3309 12.5146C14.7224 11.4491 15.0387 10.5824 15.3514 9.9902C15.6415 9.44103 16.0828 8.82126 16.8495 8.82126ZM17.1718 10.6113C16.9112 10.118 16.795 10.1043 16.5272 10.6113C16.2666 11.1048 15.9852 11.867 15.579 12.9726C15.4416 13.3466 15.3147 13.735 15.0311 14.0185C14.7476 14.3021 14.3592 14.429 13.9852 14.5664C12.8796 14.9726 12.1174 15.254 11.6239 15.5146C11.1343 15.7732 11.1163 15.8911 11.6239 16.1591C12.1174 16.4198 12.8796 16.7011 13.9852 17.1074C14.3592 17.2448 14.7476 17.3717 15.0311 17.6552C15.3147 17.9388 15.4416 18.3272 15.579 18.7011C15.9852 19.8068 16.2666 20.5689 16.5272 21.0625C16.785 21.5506 16.9139 21.5506 17.1718 21.0625C17.4324 20.5689 17.7138 19.8068 18.12 18.7011C18.2574 18.3272 18.3843 17.9388 18.6678 17.6552C18.9514 17.3717 19.3398 17.2448 19.7137 17.1074C20.8194 16.7011 21.5816 16.4198 22.0751 16.1591C22.5677 15.899 22.5821 15.7824 22.0751 15.5146C21.5816 15.254 20.8194 14.9726 19.7137 14.5664C19.3398 14.429 18.9514 14.3021 18.6678 14.0185C18.3843 13.735 18.2574 13.3466 18.12 12.9726C17.7138 11.867 17.4324 11.1048 17.1718 10.6113ZM9.83386 7.99997C10.0342 7.99997 10.1497 8.16211 10.2255 8.30563C10.3072 8.4604 10.3898 8.68736 10.4921 8.96579C10.5458 9.11214 10.5554 9.12189 10.702 9.17575C10.9805 9.27806 11.2074 9.36062 11.3622 9.44235C11.5056 9.51816 11.6678 9.63371 11.6678 9.83395C11.6677 10.0341 11.5056 10.1498 11.3622 10.2256C11.2074 10.3073 10.9805 10.3898 10.702 10.4922C10.5555 10.546 10.5459 10.5555 10.4921 10.7021C10.3899 10.9803 10.3071 11.2066 10.2255 11.3613C10.1497 11.5048 10.0342 11.667 9.83386 11.667C9.6335 11.6669 9.51806 11.5048 9.44226 11.3613C9.3606 11.2066 9.27787 10.9803 9.17566 10.7021C9.12177 10.5555 9.11224 10.546 8.9657 10.4922C8.68724 10.3898 8.46031 10.3073 8.30554 10.2256C8.16212 10.1498 8.00104 10.0341 8.00085 9.83395C8.00085 9.63374 8.1621 9.51816 8.30554 9.44235C8.4603 9.36062 8.68726 9.27806 8.9657 9.17575C9.11227 9.12189 9.12188 9.11212 9.17566 8.96579C9.27796 8.68738 9.36054 8.4604 9.44226 8.30563C9.51806 8.16211 9.6335 7.99999 9.83386 7.99997Z" fill="#7D5E93"/>
</svg>
