<svg width="32" height="32" viewBox="0 0 32 32" fill="none" xmlns="http://www.w3.org/2000/svg">
<path d="M21.2783 19.3936C21.6673 19.3623 22.001 19.6693 22.001 20.0596C22.0008 20.4029 21.7387 20.6888 21.3965 20.7168C20.2603 20.8097 17.7627 20.997 16.001 20.9971C14.2392 20.9971 11.7407 20.8097 10.6045 20.7168C10.2622 20.6888 10.0001 20.4029 10 20.0596C10 19.6694 10.3338 19.3624 10.7227 19.3936C11.9066 19.4891 14.2982 19.6631 16.001 19.6631C17.7038 19.6631 20.0944 19.4891 21.2783 19.3936ZM21.334 15.8301C21.7022 15.8301 22.001 16.1289 22.001 16.4971C22.001 16.8653 21.7022 17.1641 21.334 17.1641H10.666C10.298 17.1638 10 16.8651 10 16.4971C10 16.129 10.298 15.8303 10.666 15.8301H21.334ZM16.001 12C17.7625 12 20.2602 12.1852 21.3965 12.2773C21.739 12.3052 22.001 12.5919 22.001 12.9355C22.0009 13.3256 21.6671 13.6327 21.2783 13.6016C20.0945 13.5069 17.7039 13.334 16.001 13.334C14.298 13.334 11.9065 13.5069 10.7227 13.6016C10.3338 13.6327 10.0001 13.3256 10 12.9355C10 12.5919 10.2621 12.3053 10.6045 12.2773C11.7408 12.1852 14.2394 12 16.001 12Z" fill="#7D5E93"/>
</svg>
