<svg width="32" height="32" viewBox="0 0 32 32" fill="none" xmlns="http://www.w3.org/2000/svg">
<path d="M15.5547 10.1947C15.2951 9.93503 14.873 9.9352 14.6133 10.1947L9.36914 15.4398C8.91422 15.8947 8.91419 16.6323 9.36914 17.0872L14.6133 22.3323C14.873 22.5919 15.2951 22.592 15.5547 22.3323C15.8141 22.0727 15.8141 21.6506 15.5547 21.3909L11.4323 17.2695C11.3063 17.1435 11.3955 16.9281 11.5737 16.9281H22.335C22.7021 16.9279 23 16.6302 23 16.263C22.9998 15.896 22.7019 15.5982 22.335 15.598H11.5755C11.3974 15.598 11.3081 15.3826 11.4341 15.2566L15.5547 11.1351C15.8137 10.8754 15.8139 10.4542 15.5547 10.1947Z" fill="#7D5E93"/>
</svg>
