<svg width="32" height="32" viewBox="0 0 32 32" fill="none" xmlns="http://www.w3.org/2000/svg">
<path d="M15.9968 9.00003C16.9698 9.00003 17.4439 9.77176 17.6062 10.0635C17.8032 10.4176 17.989 10.9049 18.1697 11.3711L18.558 12.3746C18.6032 12.4915 18.6258 12.5499 18.6735 12.5845C18.7211 12.6192 18.7837 12.6227 18.9088 12.6296L19.9832 12.6895C20.4825 12.7173 21.0035 12.7424 21.4011 12.8203C21.7284 12.8845 22.6091 13.0969 22.9099 14.0225C23.2107 14.9483 22.6223 15.6376 22.3953 15.8819C22.1194 16.1786 21.7135 16.5054 21.3259 16.8213L20.4918 17.5011C20.3947 17.5802 20.3461 17.6198 20.3279 17.6758C20.3097 17.7319 20.3258 17.7924 20.3578 17.9136L20.6335 18.9541C20.7614 19.4375 20.8973 19.9406 20.946 20.3428C20.9862 20.6739 21.0568 21.5773 20.2693 22.1494C19.4819 22.7213 18.6451 22.3749 18.3425 22.2344C17.975 22.0637 17.5382 21.7788 17.1179 21.5078L16.2137 20.9242C16.1084 20.8562 16.0558 20.8223 15.9968 20.8223C15.9379 20.8223 15.8852 20.8562 15.7799 20.9242L14.8757 21.5078C14.4556 21.7787 14.0195 22.0637 13.6521 22.2344C13.3496 22.3749 12.5119 22.7216 11.7244 22.1494C10.937 21.5773 11.0075 20.6739 11.0476 20.3428C11.0964 19.9406 11.2332 19.4375 11.3611 18.9541L11.636 17.9134C11.668 17.7924 11.684 17.7318 11.6658 17.6758C11.6476 17.6198 11.5991 17.5803 11.502 17.5012L10.6677 16.8213C10.2802 16.5054 9.87422 16.1786 9.59839 15.8819C9.37122 15.6375 8.78299 14.9481 9.08374 14.0225L9.14722 13.8575C9.49307 13.0711 10.2867 12.8805 10.5935 12.8203C10.9911 12.7425 11.5115 12.7173 12.0105 12.6895L13.0843 12.6296C13.2092 12.6226 13.2717 12.6192 13.3193 12.5846C13.3669 12.55 13.3896 12.4917 13.4349 12.3751L13.825 11.3711C14.0056 10.905 14.1905 10.4175 14.3875 10.0635C14.5497 9.77194 15.0238 9.00016 15.9968 9.00003ZM15.9968 10.3301C15.6546 10.3303 15.4574 10.8372 15.0642 11.8516L14.5056 13.294C14.3925 13.5859 14.3357 13.7319 14.2166 13.8184C14.0975 13.9049 13.9412 13.9143 13.6287 13.9317L12.0847 14.0176L11.3699 14.0616C10.7536 14.1108 10.4278 14.1893 10.3484 14.4336C10.2427 14.7593 10.6651 15.1035 11.5085 15.791L12.7068 16.7676C12.9495 16.9654 13.0714 17.0651 13.1169 17.2051C13.1622 17.345 13.1217 17.4965 13.0417 17.7989L12.6462 19.294C12.368 20.3461 12.2295 20.872 12.5066 21.0733C12.7837 21.2744 13.2405 20.9794 14.155 20.3897L15.4548 19.5518C15.7178 19.3822 15.8497 19.298 15.9968 19.2979C16.144 19.2979 16.2758 19.3822 16.5388 19.5518L17.8386 20.3897C18.6958 20.9424 19.1514 21.2364 19.4333 21.1055L19.488 21.0733C19.7648 20.8719 19.6256 20.3459 19.3474 19.294L18.9519 17.7989C18.8719 17.4964 18.8323 17.3451 18.8777 17.2051C18.9232 17.0651 19.0442 16.9654 19.2869 16.7676L20.4861 15.791C21.3296 15.1034 21.7511 14.7593 21.6453 14.4336C21.5659 14.1894 21.2407 14.1108 20.6248 14.0616L19.9099 14.0176L18.365 13.9317C18.0526 13.9143 17.8962 13.9049 17.7771 13.8184C17.6581 13.7318 17.6011 13.5857 17.488 13.294L16.9294 11.8516C16.5362 10.8371 16.3392 10.3301 15.9968 10.3301Z" fill="#7D5E93"/>
</svg>
