<svg width="32" height="32" viewBox="0 0 32 32" fill="none" xmlns="http://www.w3.org/2000/svg">
<path fill-rule="evenodd" clip-rule="evenodd" d="M16.001 9C17.4314 9.00023 18.5908 10.1604 18.5908 11.5908V11.8082C18.5908 11.9122 18.6708 11.9987 18.7743 12.0087C19.8238 12.1099 20.4957 12.3065 21.0664 12.8779C21.8847 13.6978 21.933 14.7022 22.0283 16.709C22.0407 16.9693 22.0478 17.2215 22.0479 17.458L22.043 17.8242C22.0397 17.9492 22.0345 18.0779 22.0283 18.208L21.9932 18.915C21.909 20.4625 21.7825 21.3207 21.0664 22.0381C20.2479 22.8578 19.2219 22.9081 17.1709 23.0088L16.5771 23.0322C16.3817 23.0376 16.1884 23.04 16.001 23.04C15.6264 23.04 15.2311 23.0284 14.832 23.0088C12.9087 22.9144 11.8865 22.8642 11.0918 22.1826L10.9365 22.0381C10.2765 21.377 10.1116 20.4628 10.0453 19.5571C10.012 19.1009 10.3832 18.7178 10.8406 18.7178H12.5527C13.2484 18.7174 13.8123 18.1537 13.8125 17.458C13.8124 16.7622 13.2485 16.1976 12.5527 16.1973H10.8417C10.3839 16.1973 10.0157 15.8132 10.0521 15.3569C10.1366 14.2992 10.2957 13.6119 10.791 13.0342L10.9365 12.8779C11.507 12.3068 12.1779 12.11 13.2267 12.0087C13.3302 11.9987 13.4102 11.9122 13.4102 11.8082V11.5908C13.4102 10.1603 14.5705 9.0002 16.001 9ZM16.001 10.3301C15.3486 10.3303 14.8117 10.8265 14.7471 11.4619C14.7428 11.5043 14.7402 11.5473 14.7402 11.5908V12.7674C14.7402 13.0339 14.5309 13.2532 14.2648 13.2677C13.5598 13.3061 13.0771 13.3451 12.6924 13.4248C12.2704 13.5124 12.0632 13.6319 11.877 13.8184C11.6836 14.0122 11.5664 14.2085 11.4837 14.6397C11.4608 14.7592 11.555 14.8672 11.6766 14.8672H12.5527C13.983 14.8675 15.1424 16.0277 15.1426 17.458C15.1423 18.8882 13.9829 20.0475 12.5527 20.0479H11.6765C11.5549 20.0479 11.4608 20.1558 11.4836 20.2752C11.5662 20.7079 11.6832 20.9045 11.877 21.0986C12.0631 21.285 12.2706 21.4037 12.6924 21.4912C13.1826 21.5928 13.8319 21.6284 14.8975 21.6807C15.2802 21.6994 15.653 21.71 16.001 21.71C16.3492 21.71 16.7226 21.6995 17.1055 21.6807C18.1712 21.6283 18.8203 21.5929 19.3105 21.4912C19.7323 21.4036 19.9398 21.2851 20.126 21.0986C20.5072 20.7167 20.5966 20.3252 20.7002 18.1445C20.7118 17.9002 20.7178 17.6692 20.7178 17.458C20.7178 17.2468 20.7118 17.0158 20.7002 16.7715C20.5967 14.592 20.5067 14.2001 20.126 13.8184C19.9398 13.6319 19.7323 13.5124 19.3105 13.4248C18.9255 13.3449 18.4423 13.306 17.7362 13.2676C17.47 13.2532 17.2607 13.0339 17.2607 12.7674V11.5908C17.2607 11.5473 17.2592 11.5043 17.2549 11.4619C17.2291 11.2078 17.1276 10.9758 16.9736 10.7891C16.8967 10.6958 16.8064 10.6139 16.7061 10.5459C16.5049 10.4098 16.2621 10.3302 16.001 10.3301Z" fill="#7D5E93"/>
</svg>
