<svg width="32" height="32" viewBox="0 0 32 32" fill="none" xmlns="http://www.w3.org/2000/svg">
<g clip-path="url(#clip0_firefox)">
<path d="M22.9436 13.4486C22.6181 12.6634 21.9584 11.8157 21.4405 11.548C21.862 12.3763 22.1058 13.2071 22.199 13.827C22.199 13.827 22.199 13.8314 22.2006 13.8395C21.3535 11.7229 19.9169 10.8693 18.7437 9.01114C18.6841 8.9174 18.6249 8.82367 18.5669 8.72337C18.5342 8.66681 18.5077 8.61557 18.4846 8.56714C18.436 8.47319 18.3984 8.37389 18.3727 8.27125C18.3729 8.26637 18.3713 8.26159 18.3682 8.25784C18.365 8.25409 18.3607 8.25163 18.3558 8.25094C18.3512 8.24969 18.3464 8.24969 18.3418 8.25094C18.3406 8.2515 18.3394 8.25224 18.3384 8.25312C18.3365 8.25312 18.3346 8.25531 18.3328 8.25594L18.3359 8.25187C16.4537 9.35672 15.8152 11.4005 15.7566 12.4232C15.0045 12.4747 14.2853 12.7523 13.693 13.2196C13.6311 13.1671 13.5663 13.1181 13.4991 13.0728C13.3284 12.4739 13.3211 11.84 13.4782 11.2374C12.7084 11.5889 12.1098 12.1435 11.6746 12.6344H11.6711C11.374 12.2572 11.3949 11.0134 11.4118 10.7537C11.4083 10.7375 11.1904 10.8671 11.1623 10.8868C10.9002 11.0743 10.6551 11.2846 10.43 11.5155C10.1738 11.7757 9.93982 12.057 9.73037 12.3563C9.2485 13.0407 8.90676 13.814 8.72491 14.6316C8.72148 14.6478 8.71836 14.6647 8.71493 14.6813C8.7009 14.7472 8.65008 15.0781 8.64104 15.15V15.1665C8.57479 15.5084 8.53353 15.8547 8.51758 16.2026V16.2411C8.51758 20.388 11.8722 23.75 16.0101 23.75C19.7161 23.75 22.793 21.0535 23.3956 17.5115C23.4081 17.4156 23.4184 17.3187 23.4296 17.2219C23.5786 15.9339 23.4131 14.5804 22.9436 13.4486ZM14.3075 19.3266C14.3424 19.3431 14.3755 19.3615 14.4113 19.3778L14.4163 19.3809C14.3804 19.3634 14.344 19.3453 14.3078 19.3266H14.3075ZM22.2012 13.843V13.8358V13.8439V13.843Z" fill="url(#paint0_linear_firefox)"/>
<path d="M22.9436 13.4485C22.6181 12.6633 21.9584 11.8156 21.4406 11.5479C21.8621 12.3762 22.1059 13.207 22.1991 13.8269V13.8422C22.9062 15.7632 22.5208 17.7167 21.9659 18.9102C21.1073 20.7569 19.0287 22.6497 15.7747 22.5575C12.262 22.4576 9.16517 19.842 8.58683 16.419C8.48145 15.8788 8.58683 15.6048 8.63983 15.1664C8.5753 15.5042 8.55067 15.602 8.51855 16.2025V16.2409C8.51855 20.3878 11.8732 23.7499 16.011 23.7499C19.7171 23.7499 22.794 21.0534 23.3966 17.5114C23.4091 17.4155 23.4194 17.3186 23.4306 17.2217C23.5787 15.9338 23.4131 14.5802 22.9436 13.4485V13.4485Z" fill="url(#paint1_radial_firefox)"/>
<path d="M22.9436 13.4485C22.6181 12.6633 21.9584 11.8156 21.4406 11.5479C21.8621 12.3762 22.1059 13.207 22.1991 13.8269V13.8422C22.9062 15.7632 22.5208 17.7167 21.9659 18.9102C21.1073 20.7569 19.0287 22.6497 15.7747 22.5575C12.262 22.4576 9.16517 19.842 8.58683 16.419C8.48145 15.8788 8.58683 15.6048 8.63983 15.1664C8.5753 15.5042 8.55067 15.602 8.51855 16.2025V16.2409C8.51855 20.3878 11.8732 23.7499 16.011 23.7499C19.7171 23.7499 22.794 21.0534 23.3966 17.5114C23.4091 17.4155 23.4194 17.3186 23.4306 17.2217C23.5787 15.9338 23.4131 14.5802 22.9436 13.4485V13.4485Z" fill="url(#paint2_radial_firefox)"/>
<path d="M19.3019 14.3311C19.3185 14.3427 19.3331 14.3542 19.3487 14.3658C19.1607 14.0312 18.9264 13.7248 18.6528 13.4559C16.3239 11.1219 18.0424 8.39475 18.332 8.25602L18.3351 8.25195C16.453 9.3568 15.8145 11.4006 15.7559 12.4232C15.8432 12.4173 15.9301 12.4098 16.019 12.4098C17.4235 12.4098 18.6469 13.1841 19.3019 14.3311Z" fill="url(#paint3_radial_firefox)"/>
<path d="M16.0239 14.7971C16.0117 14.9846 15.3533 15.6282 15.1229 15.6282C12.9922 15.6282 12.6465 16.9199 12.6465 16.9199C12.74 18.0079 13.4964 18.9037 14.4114 19.3777C14.4532 19.3993 14.4953 19.4186 14.5361 19.438C14.6094 19.4693 14.683 19.5005 14.7562 19.5283C15.07 19.6392 15.3987 19.7024 15.7312 19.7158C19.4656 19.8914 20.1895 15.2408 17.4942 13.8904C18.1842 13.7701 18.9006 14.0485 19.3006 14.33C18.6459 13.183 17.4222 12.4087 16.0177 12.4087C15.9288 12.4087 15.8418 12.4162 15.7545 12.4221C15.003 12.4743 14.2845 12.7522 13.6928 13.2195C13.8072 13.3167 13.9363 13.446 14.2078 13.7141C14.7173 14.2178 16.0211 14.7362 16.0239 14.7971V14.7971Z" fill="url(#paint4_radial_firefox)"/>
<path d="M16.0239 14.7971C16.0117 14.9846 15.3533 15.6282 15.1229 15.6282C12.9922 15.6282 12.6465 16.9199 12.6465 16.9199C12.74 18.0079 13.4964 18.9037 14.4114 19.3777C14.4532 19.3993 14.4953 19.4186 14.5361 19.438C14.6094 19.4693 14.683 19.5005 14.7562 19.5283C15.07 19.6392 15.3987 19.7024 15.7312 19.7158C19.4656 19.8914 20.1895 15.2408 17.4942 13.8904C18.1842 13.7701 18.9006 14.0485 19.3006 14.33C18.6459 13.183 17.4222 12.4087 16.0177 12.4087C15.9288 12.4087 15.8418 12.4162 15.7545 12.4221C15.003 12.4743 14.2845 12.7522 13.6928 13.2195C13.8072 13.3167 13.9363 13.446 14.2078 13.7141C14.7173 14.2178 16.0211 14.7362 16.0239 14.7971V14.7971Z" fill="url(#paint5_radial_firefox)"/>
<path d="M13.3444 12.9699C13.4052 13.0092 13.4551 13.0424 13.5003 13.0727C13.3296 12.4738 13.3224 11.8399 13.4794 11.2373C12.7096 11.5888 12.111 12.1434 11.6758 12.6343C11.711 12.6334 12.7978 12.6137 13.3444 12.9699V12.9699Z" fill="url(#paint6_radial_firefox)"/>
<path d="M8.58722 16.4191C9.16556 19.8421 12.2624 22.4576 15.7776 22.5576C19.0316 22.6498 21.1089 20.7569 21.9688 18.9103C22.5237 17.7164 22.9091 15.7633 22.202 13.8423V13.8279C22.202 13.8298 22.202 13.8323 22.2035 13.8404C22.4692 15.5799 21.5865 17.2649 20.2066 18.4045C20.2052 18.4077 20.2039 18.4109 20.2026 18.4142C17.5136 20.6085 14.9405 19.738 14.4195 19.3828C14.3834 19.3653 14.3469 19.3471 14.3107 19.3284C12.7428 18.5785 12.0953 17.1459 12.234 15.9183C10.9105 15.9183 10.4591 14.799 10.4591 14.799C10.4591 14.799 11.6476 13.9498 13.2139 14.6884C14.6646 15.3727 16.027 14.7994 16.027 14.799C16.0242 14.7381 14.7204 14.2182 14.2119 13.7161C13.9403 13.448 13.8113 13.3186 13.6968 13.2215C13.6349 13.169 13.5702 13.12 13.5029 13.0746C13.4583 13.0434 13.4094 13.0121 13.347 12.9718C12.8005 12.6156 11.7137 12.6353 11.6778 12.6362H11.6744C11.3773 12.2591 11.3982 11.0152 11.415 10.7556C11.4116 10.7393 11.1936 10.869 11.1656 10.8887C10.9034 11.0761 10.6583 11.2865 10.4332 11.5173C10.1771 11.7776 9.94305 12.0588 9.73361 12.3581C9.25173 13.0425 8.90999 13.8159 8.72814 14.6334C8.72222 14.6478 8.45565 15.8142 8.58722 16.4191V16.4191Z" fill="url(#paint7_radial_firefox)"/>
<path d="M18.653 13.4558C18.9266 13.7248 19.1609 14.0311 19.3489 14.3657C19.3879 14.395 19.4253 14.4263 19.4612 14.4594C21.1597 16.0267 20.2711 18.2455 20.2035 18.4048C21.5834 17.2653 22.466 15.5802 22.2004 13.8408C21.3533 11.7229 19.9167 10.8693 18.7435 9.01114C18.6839 8.9174 18.6247 8.82367 18.5667 8.72337C18.534 8.66681 18.5075 8.61557 18.4844 8.56714C18.4358 8.47319 18.3982 8.37389 18.3725 8.27125C18.3727 8.26637 18.371 8.26159 18.3679 8.25784C18.3648 8.25409 18.3604 8.25163 18.3556 8.25094C18.351 8.24969 18.3462 8.24969 18.3416 8.25094C18.3403 8.2515 18.3392 8.25224 18.3382 8.25312C18.3363 8.25312 18.3344 8.25531 18.3325 8.25594C18.0426 8.39467 16.3241 11.1218 18.653 13.4558V13.4558Z" fill="url(#paint8_radial_firefox)"/>
<path d="M19.4603 14.4579C19.4245 14.4247 19.387 14.3935 19.3481 14.3641C19.3328 14.3526 19.3169 14.341 19.3013 14.3294C18.9013 14.0482 18.1849 13.7695 17.4949 13.8898C20.1899 15.2403 19.4662 19.8908 15.7318 19.7152C15.3993 19.7019 15.0707 19.6387 14.7569 19.5278C14.6837 19.5003 14.6101 19.47 14.5368 19.4375C14.4944 19.4181 14.4523 19.3987 14.4121 19.3772L14.4171 19.3803C14.9381 19.7365 17.5111 20.607 20.2001 18.4117C20.2001 18.4117 20.2017 18.4076 20.2042 18.402C20.2709 18.2455 21.1595 16.0267 19.4603 14.4579Z" fill="url(#paint9_radial_firefox)"/>
<path d="M12.6466 16.9201C12.6466 16.9201 12.9923 15.6284 15.123 15.6284C15.3534 15.6284 16.0118 14.9841 16.024 14.7972C16.0361 14.6104 14.6615 15.3709 13.2109 14.6866C11.6445 13.948 10.4561 14.7972 10.4561 14.7972C10.4561 14.7972 10.9075 15.9165 12.231 15.9165C12.0922 17.1441 12.7398 18.5755 14.3077 19.3266C14.3426 19.3432 14.3756 19.3616 14.4115 19.3779C13.4965 18.9048 12.741 18.008 12.6466 16.9201Z" fill="url(#paint10_radial_firefox)"/>
<path d="M22.9436 13.4486C22.6181 12.6634 21.9584 11.8157 21.4405 11.548C21.862 12.3763 22.1058 13.2071 22.199 13.827C22.199 13.827 22.199 13.8314 22.2006 13.8395C21.3535 11.7229 19.9169 10.8693 18.7437 9.01114C18.6841 8.9174 18.6249 8.82367 18.5669 8.72337C18.5342 8.66681 18.5077 8.61557 18.4846 8.56714C18.436 8.47319 18.3984 8.37389 18.3727 8.27125C18.3729 8.26637 18.3713 8.26159 18.3682 8.25784C18.365 8.25409 18.3607 8.25163 18.3558 8.25094C18.3512 8.24969 18.3464 8.24969 18.3418 8.25094C18.3406 8.2515 18.3394 8.25224 18.3384 8.25312C18.3365 8.25312 18.3346 8.25531 18.3328 8.25594L18.3359 8.25187C16.4537 9.35672 15.8152 11.4005 15.7566 12.4232C15.8439 12.4172 15.9309 12.4097 16.0197 12.4097C17.4243 12.4097 18.6477 13.184 19.3027 14.331C18.9027 14.0498 18.1862 13.7711 17.4963 13.8914C20.1912 15.2418 19.4676 19.8924 15.7332 19.7168C15.4007 19.7035 15.0721 19.6403 14.7583 19.5293C14.685 19.5018 14.6115 19.4715 14.5382 19.439C14.4958 19.4197 14.4537 19.4003 14.4135 19.3787L14.4185 19.3819C14.3823 19.3644 14.3458 19.3462 14.3097 19.3275C14.3446 19.3441 14.3776 19.3625 14.4135 19.3787C13.4966 18.9047 12.7411 18.008 12.6467 16.92C12.6467 16.92 12.9924 15.6283 15.1231 15.6283C15.3535 15.6283 16.0119 14.984 16.0241 14.7972C16.0213 14.7363 14.7175 14.2163 14.209 13.7142C13.9374 13.4461 13.8083 13.3168 13.6939 13.2196C13.632 13.1671 13.5673 13.1181 13.5 13.0728C13.3293 12.4739 13.3221 11.84 13.4791 11.2374C12.7093 11.5889 12.1107 12.1435 11.6755 12.6344H11.6721C11.375 12.2572 11.3959 11.0134 11.4127 10.7537C11.4093 10.7375 11.1913 10.8671 11.1633 10.8868C10.9011 11.0743 10.656 11.2846 10.4309 11.5155C10.1748 11.7757 9.94075 12.057 9.7313 12.3563C9.24943 13.0407 8.90769 13.814 8.72584 14.6316C8.72241 14.6478 8.71929 14.6647 8.71586 14.6813C8.70184 14.7472 8.63823 15.0828 8.6295 15.1546C8.6295 15.1603 8.6295 15.1493 8.6295 15.1546C8.57113 15.5014 8.53375 15.8514 8.51758 16.2026V16.2411C8.51758 20.388 11.8722 23.75 16.0101 23.75C19.7161 23.75 22.793 21.0535 23.3956 17.5115C23.4081 17.4156 23.4184 17.3187 23.4296 17.2219C23.5786 15.9339 23.4131 14.5804 22.9436 13.4486ZM22.2003 13.8342V13.8423V13.8342Z" fill="url(#paint11_linear_firefox)"/>
</g>
<defs>
<linearGradient id="paint0_linear_firefox" x1="21.9518" y1="10.6512" x2="9.48709" y2="22.651" gradientUnits="userSpaceOnUse"><stop offset="0.05" stop-color="#FFF44F"/><stop offset="0.11" stop-color="#FFE847"/><stop offset="0.22" stop-color="#FFC830"/><stop offset="0.37" stop-color="#FF980E"/><stop offset="0.4" stop-color="#FF8B16"/><stop offset="0.46" stop-color="#FF672A"/><stop offset="0.53" stop-color="#FF3647"/><stop offset="0.7" stop-color="#E31587"/></linearGradient>
<radialGradient id="paint1_radial_firefox" cx="0" cy="0" r="1" gradientUnits="userSpaceOnUse" gradientTransform="translate(21.3769 9.97026) scale(15.6201 15.6543)"><stop offset="0.13" stop-color="#FFBD4F"/><stop offset="0.19" stop-color="#FFAC31"/><stop offset="0.25" stop-color="#FF9D17"/><stop offset="0.28" stop-color="#FF980E"/><stop offset="0.4" stop-color="#FF563B"/><stop offset="0.47" stop-color="#FF3750"/><stop offset="0.71" stop-color="#F5156C"/><stop offset="0.78" stop-color="#EB0878"/><stop offset="0.86" stop-color="#E50080"/></radialGradient>
<radialGradient id="paint2_radial_firefox" cx="0" cy="0" r="1" gradientUnits="userSpaceOnUse" gradientTransform="translate(15.6693 16.37) scale(15.6201 15.6543)"><stop offset="0.3" stop-color="#960E18"/><stop offset="0.35" stop-color="#B11927" stop-opacity="0.74"/><stop offset="0.43" stop-color="#DB293D" stop-opacity="0.34"/><stop offset="0.5" stop-color="#F5334B" stop-opacity="0.09"/><stop offset="0.53" stop-color="#FF3750" stop-opacity="0"/></radialGradient>
<radialGradient id="paint3_radial_firefox" cx="0" cy="0" r="1" gradientUnits="userSpaceOnUse" gradientTransform="translate(17.5523 6.41784) scale(11.3161 11.3409)"><stop offset="0.13" stop-color="#FFF44F"/><stop offset="0.25" stop-color="#FFDC3E"/><stop offset="0.51" stop-color="#FF9D12"/><stop offset="0.53" stop-color="#FF980E"/></radialGradient>
<radialGradient id="paint4_radial_firefox" cx="0" cy="0" r="1" gradientUnits="userSpaceOnUse" gradientTransform="translate(13.9416 20.4591) scale(7.43731 7.45363)"><stop offset="0.35" stop-color="#3A8EE6"/><stop offset="0.47" stop-color="#5C79F0"/><stop offset="0.67" stop-color="#9059FF"/><stop offset="1" stop-color="#C139E6"/></radialGradient>
<radialGradient id="paint5_radial_firefox" cx="0" cy="0" r="1" gradientTransform="matrix(3.82499 -0.948465 1.10412 4.50521 15.8934 14.5095)" gradientUnits="userSpaceOnUse"><stop offset="0.21" stop-color="#9059FF" stop-opacity="0"/><stop offset="0.28" stop-color="#8C4FF3" stop-opacity="0.06"/><stop offset="0.75" stop-color="#7716A8" stop-opacity="0.45"/><stop offset="0.97" stop-color="#6E008B" stop-opacity="0.6"/></radialGradient>
<radialGradient id="paint6_radial_firefox" cx="0" cy="0" r="1" gradientUnits="userSpaceOnUse" gradientTransform="translate(15.4716 9.32976) scale(5.35062 5.36237)"><stop stop-color="#FFE226"/><stop offset="0.12" stop-color="#FFDB27"/><stop offset="0.3" stop-color="#FFC82A"/><stop offset="0.5" stop-color="#FFA930"/><stop offset="0.73" stop-color="#FF7E37"/><stop offset="0.79" stop-color="#FF7139"/></radialGradient>
<radialGradient id="paint7_radial_firefox" cx="0" cy="0" r="1" gradientUnits="userSpaceOnUse" gradientTransform="translate(19.6782 5.92874) scale(22.8282 22.8783)"><stop offset="0.11" stop-color="#FFF44F"/><stop offset="0.46" stop-color="#FF980E"/><stop offset="0.62" stop-color="#FF5634"/><stop offset="0.72" stop-color="#FF3647"/><stop offset="0.9" stop-color="#E31587"/></radialGradient>
<radialGradient id="paint8_radial_firefox" cx="0" cy="0" r="1" gradientTransform="matrix(1.67225 16.5916 -10.8696 1.17314 17.4709 8.42838)" gradientUnits="userSpaceOnUse"><stop stop-color="#FFF44F"/><stop offset="0.06" stop-color="#FFE847"/><stop offset="0.17" stop-color="#FFC830"/><stop offset="0.3" stop-color="#FF980E"/><stop offset="0.36" stop-color="#FF8B16"/><stop offset="0.45" stop-color="#FF672A"/><stop offset="0.57" stop-color="#FF3647"/><stop offset="0.74" stop-color="#E31587"/></radialGradient>
<radialGradient id="paint9_radial_firefox" cx="0" cy="0" r="1" gradientUnits="userSpaceOnUse" gradientTransform="translate(15.3456 11.3158) scale(14.2517 14.283)"><stop offset="0.14" stop-color="#FFF44F"/><stop offset="0.48" stop-color="#FF980E"/><stop offset="0.59" stop-color="#FF5634"/><stop offset="0.66" stop-color="#FF3647"/><stop offset="0.9" stop-color="#E31587"/></radialGradient>
<radialGradient id="paint10_radial_firefox" cx="0" cy="0" r="1" gradientUnits="userSpaceOnUse" gradientTransform="translate(19.108 12.152) scale(15.5986 15.6328)"><stop offset="0.09" stop-color="#FFF44F"/><stop offset="0.23" stop-color="#FFE141"/><stop offset="0.51" stop-color="#FFAF1E"/><stop offset="0.63" stop-color="#FF980E"/></radialGradient>
<linearGradient id="paint11_linear_firefox" x1="21.8022" y1="10.5869" x2="11.1956" y2="21.1705" gradientUnits="userSpaceOnUse"><stop offset="0.17" stop-color="#FFF44F" stop-opacity="0.8"/><stop offset="0.27" stop-color="#FFF44F" stop-opacity="0.63"/><stop offset="0.49" stop-color="#FFF44F" stop-opacity="0.22"/><stop offset="0.6" stop-color="#FFF44F" stop-opacity="0"/></linearGradient>
<clipPath id="clip0_firefox"><rect width="16" height="16" fill="white" transform="translate(8 8)"/></clipPath>
</defs>
</svg>
