<svg width="32" height="32" viewBox="0 0 32 32" fill="none" xmlns="http://www.w3.org/2000/svg">
<path d="M16 9C19.866 9 23 12.134 23 16C23 19.866 19.866 23 16 23C12.134 23 9 19.866 9 16C9 12.134 12.134 9 16 9ZM16 10.3301C12.8685 10.3301 10.3301 12.8685 10.3301 16C10.3301 19.1315 12.8685 21.6699 16 21.6699C19.1315 21.6699 21.6699 19.1315 21.6699 16C21.6699 12.8685 19.1315 10.3301 16 10.3301ZM16 12.0352C16.3673 12.0352 16.665 12.3329 16.665 12.7002V15.4229C16.6651 15.5493 16.7436 15.6618 16.832 15.7129L19.2266 17.0947C19.5446 17.2784 19.6533 17.6859 19.4697 18.0039C19.286 18.3216 18.8794 18.4305 18.5615 18.2471L16.168 16.8652C16.0573 16.8013 15.9321 16.7294 15.8301 16.6562C15.7161 16.5746 15.5885 16.4624 15.4912 16.2939C15.3939 16.1255 15.3605 15.9589 15.3467 15.8193C15.3344 15.6944 15.335 15.5507 15.335 15.4229V12.7002C15.335 12.3329 15.6327 12.0352 16 12.0352Z" fill="#7D5E93"/>
</svg>
