<svg width="32" height="32" viewBox="0 0 32 32" fill="none" xmlns="http://www.w3.org/2000/svg">
<path d="M16 9.99933C16.3682 9.99933 16.6666 10.2979 16.6667 10.666V14.6673C16.6667 14.9816 16.6667 15.1387 16.7643 15.2363C16.862 15.334 17.0191 15.334 17.3334 15.334H21.334C21.7022 15.334 22.0007 15.6324 22.0007 16.0006C22.0007 16.3688 21.7022 16.6673 21.334 16.6673H17.3334C17.0191 16.6673 16.862 16.6673 16.7643 16.7649C16.6667 16.8626 16.6667 17.0197 16.6667 17.334V21.334C16.6667 21.7022 16.3682 22.0006 16 22.0006C15.6319 22.0006 15.3334 21.7021 15.3334 21.334V17.334C15.3334 17.0197 15.3334 16.8626 15.2357 16.7649C15.1381 16.6673 14.981 16.6673 14.6667 16.6673H10.6661C10.2979 16.6672 9.99939 16.3688 9.99939 16.0006C9.99939 15.6325 10.2979 15.3341 10.6661 15.334H14.6667C14.981 15.334 15.1381 15.334 15.2357 15.2363C15.3334 15.1387 15.3334 14.9816 15.3334 14.6673V10.666C15.3335 10.2979 15.6319 9.99937 16 9.99933Z" fill="#7D5E93"/>
</svg>
