<svg width="24" height="24" viewBox="0 0 24 24" fill="none" xmlns="http://www.w3.org/2000/svg">
<path fill-rule="evenodd" clip-rule="evenodd" d="M10.9646 5.26697C11.5847 4.91116 12.3308 4.91118 12.9509 5.26697L16.9167 7.53357C17.7205 7.99619 18.145 8.93784 17.9783 9.8949L17.529 12.474C17.3483 13.5209 17.0194 14.4299 16.5495 15.183C15.6466 16.639 14.4068 17.8953 13.0505 18.7074L13.0515 18.7084C12.733 18.9042 12.3718 19.0022 12.0115 19.0023H11.9607V18.9916C11.6172 18.9829 11.2751 18.8862 10.9714 18.6996C9.62367 17.8876 8.38338 16.6388 7.47239 15.183C7.00254 14.4299 6.6736 13.5119 6.4929 12.4652L6.03489 9.84314L6.01145 9.66541C5.92356 8.77859 6.34391 7.92435 7.09739 7.4906L10.9646 5.26697ZM11.9617 6.40271C11.8395 6.4028 11.7093 6.43536 11.5945 6.50037L11.5935 6.49939L7.73704 8.72303C7.44479 8.89457 7.2818 9.23823 7.34349 9.59119L7.80149 12.2133L7.86399 12.5316C8.02233 13.2619 8.26243 13.9002 8.58763 14.4183C9.37672 15.6972 10.4581 16.7859 11.6277 17.4847L11.7185 17.5297C11.9367 17.6206 12.1862 17.6057 12.3943 17.4847L12.612 17.348C13.6975 16.6408 14.6947 15.6084 15.4421 14.4095C15.8138 13.8173 16.0747 13.0771 16.2292 12.2133L16.6784 9.63514C16.7405 9.28068 16.5848 8.92929 16.2868 8.76697L12.322 6.49939C12.2066 6.43401 12.0834 6.40273 11.9617 6.40271Z" fill="#7D5E93"/>
</svg>
