<svg width="32" height="32" viewBox="0 0 32 32" fill="none" xmlns="http://www.w3.org/2000/svg">
<path d="M15.5 10C16.9547 10 18.2962 10.4796 19.3789 11.2871L19.3809 11.2852C19.9191 11.6731 20.3778 12.152 20.7402 12.6943C20.7733 12.7438 20.8501 12.7308 20.8633 12.6729L20.9512 12.2842C21.0326 11.9254 21.3902 11.7003 21.749 11.7812C22.1077 11.8627 22.3329 12.2193 22.252 12.5781L21.9219 14.0361C21.8914 14.1708 21.8557 14.3373 21.8047 14.4746C21.7468 14.6303 21.6382 14.8395 21.4072 14.9854C21.1762 15.131 20.9408 15.1378 20.7754 15.123C20.6329 15.1103 20.4709 15.0741 20.3379 15.0439L20.3271 15.042L18.8711 14.7119C18.512 14.6306 18.2869 14.2731 18.3682 13.9141C18.4496 13.5552 18.8061 13.33 19.165 13.4111L19.5361 13.4951C19.5938 13.5078 19.6379 13.4444 19.6045 13.3955C19.3548 13.0308 19.0471 12.7055 18.6904 12.4336V12.4346C17.8123 11.743 16.7049 11.3301 15.5 11.3301C12.6447 11.3301 10.3301 13.6447 10.3301 16.5C10.3301 19.3553 12.6447 21.6699 15.5 21.6699C17.9073 21.6699 19.9303 20.0243 20.5059 17.7969H20.5078L20.5312 17.7324C20.664 17.3905 21.0494 17.2204 21.3916 17.3525C21.7321 17.4845 21.9019 17.867 21.7734 18.208C21.0234 20.9693 18.4988 23 15.5 23C11.9101 23 9 20.0899 9 16.5C9 12.9101 11.9101 10 15.5 10Z" fill="#7D5E93"/>
</svg>
