<svg width="32" height="32" viewBox="0 0 32 32" fill="none" xmlns="http://www.w3.org/2000/svg">
<path fill-rule="evenodd" clip-rule="evenodd" d="M16.0004 13C17.6572 13.0002 19.0004 14.3431 19.0004 16C19.0004 17.6569 17.6572 18.9998 16.0004 19C14.3434 19 13.0004 17.657 13.0004 16C13.0004 14.343 14.3434 13 16.0004 13ZM16.0004 14.5C15.1734 14.5 14.5004 15.173 14.5004 16C14.5004 16.827 15.1734 17.5 16.0004 17.5C16.8272 17.4998 17.5004 16.8269 17.5004 16C17.5004 15.1731 16.8272 14.5002 16.0004 14.5Z" fill="#7D5E93"/>
<path fill-rule="evenodd" clip-rule="evenodd" d="M16.6049 8C17.3798 8.00012 18.0632 8.50956 18.2836 9.25293L18.681 10.5967C18.9076 10.713 19.1204 10.8434 19.3207 10.9805L20.7025 10.6504C21.4549 10.4693 22.2382 10.8052 22.6254 11.4766L23.2279 12.5186C23.6178 13.1935 23.515 14.047 22.9721 14.6094L22.0082 15.6064C22.0222 15.7304 22.0346 15.8666 22.0346 16C22.0346 16.1248 22.0222 16.2525 22.0092 16.3691L22.9848 17.3965C23.519 17.9589 23.6168 18.8049 23.2308 19.4756L22.6283 20.5186C22.2624 21.1515 21.5447 21.4862 20.8324 21.3701L20.6898 21.3408L19.3392 21.0039C19.1339 21.1456 18.9147 21.28 18.681 21.4004L18.2826 22.7461C18.0622 23.4895 17.3788 23.9989 16.6039 23.999H15.4017C14.6217 23.999 13.9347 23.483 13.7191 22.7324L13.3392 21.4102C13.0983 21.2878 12.8721 21.1502 12.6596 21.0039L11.31 21.3408C10.5523 21.5298 9.76085 21.194 9.3705 20.5186L8.76893 19.4766C8.38215 18.8062 8.48183 17.9587 9.016 17.3965L9.98964 16.3682C9.97672 16.2516 9.9662 16.1237 9.9662 16C9.9662 15.8657 9.97741 15.7295 9.99159 15.6055L9.02968 14.6094C8.48747 14.0479 8.38221 13.1937 8.77284 12.5176L9.3744 11.4756C9.76147 10.8042 10.545 10.4685 11.2973 10.6494L12.6801 10.9805C12.8873 10.8393 13.1068 10.7062 13.3402 10.5879L13.7201 9.2666C13.9356 8.51598 14.6227 8 15.4027 8H16.6049ZM15.4027 9.5C15.291 9.5 15.1932 9.57374 15.1625 9.68066L14.6879 11.3311C14.6251 11.5497 14.4661 11.7286 14.2562 11.8164C13.9211 11.9566 13.6043 12.1514 13.2894 12.3887C13.1107 12.5234 12.8811 12.5716 12.6635 12.5195L10.9486 12.1084H10.9467C10.8402 12.0827 10.729 12.1306 10.6742 12.2256L10.6732 12.2266L10.0717 13.2686C10.0165 13.3644 10.0311 13.4869 10.1088 13.5674L11.3226 14.8242C11.4808 14.9881 11.5559 15.2155 11.5267 15.4414C11.4923 15.7084 11.4662 15.84 11.4662 16C11.4662 16.1551 11.4914 16.2673 11.5238 16.5371C11.5504 16.7587 11.4772 16.9816 11.3236 17.1436L10.1029 18.4287C10.0273 18.5084 10.0129 18.6301 10.0678 18.7256L10.6693 19.7676C10.725 19.8639 10.8385 19.9126 10.9467 19.8857L12.6361 19.4639L12.7191 19.4482C12.9139 19.4226 13.1126 19.4745 13.2709 19.5947C13.5125 19.7785 13.7543 19.9376 14.0033 20.0654L14.2553 20.1826L14.3314 20.2197C14.5034 20.3156 14.6319 20.4765 14.6869 20.668L15.1615 22.3184L15.1957 22.3916C15.2413 22.4575 15.3179 22.499 15.4017 22.499H16.6039C16.7147 22.4989 16.8126 22.4258 16.8441 22.3193L17.3383 20.6533L17.3666 20.5752C17.442 20.3969 17.5839 20.2533 17.7641 20.1768C18.095 20.0364 18.4098 19.8368 18.7289 19.5947L18.7992 19.5469C18.968 19.4467 19.171 19.4159 19.3637 19.4639L21.0531 19.8857C21.1612 19.9124 21.2739 19.8638 21.3295 19.7676L21.931 18.7266C21.9867 18.6295 21.9721 18.5092 21.8969 18.4297L21.8959 18.4287L20.6762 17.1436C20.5217 16.9807 20.4482 16.7569 20.476 16.5342C20.5091 16.2688 20.5346 16.1528 20.5346 16C20.5346 15.8379 20.5078 15.709 20.474 15.4375C20.4461 15.2126 20.5216 14.9873 20.6791 14.8242L21.893 13.5674C21.9696 13.4879 21.9847 13.3664 21.9291 13.2695L21.3266 12.2275C21.2718 12.1325 21.1596 12.0837 21.0531 12.1094L19.3363 12.5195C19.1188 12.5714 18.8889 12.5233 18.7103 12.3887C18.399 12.1538 18.0898 11.9605 17.765 11.8232C17.5583 11.7359 17.402 11.5599 17.3383 11.3447L16.8451 9.67871C16.8134 9.57252 16.7155 9.50012 16.6049 9.5H15.4027Z" fill="#7D5E93"/>
</svg>
