<svg width="32" height="32" viewBox="0 0 32 32" fill="none" xmlns="http://www.w3.org/2000/svg">
<path d="M16 10C16.3624 10 16.7441 10.0121 17.1299 10.0322C19.153 10.1376 20.1647 10.1906 20.9785 11.001C21.7921 11.8114 21.8501 12.8312 21.9648 14.8711C21.987 15.2657 22 15.6488 22 16C22 16.3512 21.987 16.7343 21.9648 17.1289L21.9229 17.8477C21.8238 19.4205 21.6904 20.2899 20.9785 20.999L20.8232 21.1426C20.0341 21.8165 19.0266 21.869 17.1299 21.9678L16.5557 21.9912C16.3669 21.9967 16.1811 22 16 22C15.6376 22 15.2559 21.9879 14.8701 21.9678C12.847 21.8624 11.8353 21.8094 11.0215 20.999C10.3096 20.2899 10.1762 19.4205 10.0771 17.8477L10.0352 17.1289C10.013 16.7343 10 16.3512 10 16C10 15.6488 10.013 15.2657 10.0352 14.8711C10.1428 12.9584 10.2006 11.9426 10.8779 11.1553L11.0215 11.001C11.7336 10.2919 12.5971 10.1621 14.1572 10.0703L14.8701 10.0322C15.2559 10.0121 15.6376 10 16 10ZM16 11.3301C15.6657 11.3301 15.3079 11.3412 14.9395 11.3604H14.9365C14.688 11.4024 14.5001 11.6165 14.5 11.875V20.1201C14.5 20.3923 14.708 20.616 14.9766 20.6406C15.3319 20.6586 15.6769 20.6699 16 20.6699C16.3343 20.6699 16.6921 20.6588 17.0605 20.6396C18.1123 20.5849 18.7512 20.5478 19.2344 20.4463C19.6495 20.359 19.8542 20.2417 20.04 20.0566C20.2241 19.8732 20.3429 19.6685 20.4326 19.248C20.5367 18.7601 20.5771 18.1139 20.6367 17.0537C20.658 16.6762 20.6699 16.3195 20.6699 16C20.6699 15.6805 20.658 15.3238 20.6367 14.9463C20.5771 13.8861 20.5367 13.2399 20.4326 12.752C20.3429 12.3315 20.2241 12.1268 20.04 11.9434C19.8542 11.7583 19.6495 11.641 19.2344 11.5537C18.7512 11.4522 18.1123 11.4151 17.0605 11.3604C16.6921 11.3412 16.3343 11.3301 16 11.3301Z" fill="#7D5E93"/>
</svg>
