<svg width="26" height="26" viewBox="0 0 26 26" fill="none" xmlns="http://www.w3.org/2000/svg">
<path d="M1 13C1 6.37258 6.37258 1 13 1V1C19.6274 1 25 6.37258 25 13V13C25 19.6274 19.6274 25 13 25V25C6.37258 25 1 19.6274 1 13V13Z" fill="white" fill-opacity="0.6"/>
<path d="M13 0.5C19.9036 0.5 25.5 6.09644 25.5 13C25.5 19.9036 19.9036 25.5 13 25.5C6.09644 25.5 0.5 19.9036 0.5 13C0.5 6.09644 6.09644 0.5 13 0.5Z" stroke="#210340" stroke-opacity="0.2"/>
<g clip-path="url(#clip0_22435_14046)">
<path d="M19.9436 10.4486C19.6181 9.66344 18.9584 8.81574 18.4405 8.54797C18.862 9.37629 19.1058 10.2071 19.199 10.827C19.199 10.827 19.199 10.8314 19.2006 10.8395C18.3535 8.72294 16.9169 7.86931 15.7437 6.01114C15.6841 5.9174 15.6249 5.82367 15.5669 5.72337C15.5342 5.66681 15.5077 5.61557 15.4846 5.56714C15.436 5.47319 15.3984 5.37389 15.3727 5.27125C15.3729 5.26637 15.3713 5.26159 15.3682 5.25784C15.365 5.25409 15.3607 5.25163 15.3558 5.25094C15.3512 5.24969 15.3464 5.24969 15.3418 5.25094C15.3406 5.2515 15.3394 5.25224 15.3384 5.25312C15.3365 5.25312 15.3346 5.25531 15.3328 5.25594L15.3359 5.25187C13.4537 6.35672 12.8152 8.40049 12.7566 9.42316C12.0045 9.4747 11.2853 9.75226 10.693 10.2196C10.6311 10.1671 10.5663 10.1181 10.4991 10.0728C10.3284 9.47386 10.3211 8.84003 10.4782 8.23739C9.70841 8.5889 9.10981 9.14351 8.67458 9.63438H8.67115C8.37403 9.25724 8.39492 8.01336 8.41175 7.75371C8.40832 7.73746 8.1904 7.86713 8.16234 7.88681C7.90016 8.07426 7.65508 8.28464 7.42998 8.51547C7.17383 8.77574 6.93982 9.05699 6.73037 9.35629C6.2485 10.0407 5.90676 10.814 5.72491 11.6316C5.72148 11.6478 5.71836 11.6647 5.71493 11.6813C5.7009 11.7472 5.65008 12.0781 5.64104 12.15V12.1665C5.57479 12.5084 5.53353 12.8547 5.51758 13.2026V13.2411C5.51758 17.388 8.87224 20.75 13.0101 20.75C16.7161 20.75 19.793 18.0535 20.3956 14.5115C20.4081 14.4156 20.4184 14.3187 20.4296 14.2219C20.5786 12.9339 20.4131 11.5804 19.9436 10.4486ZM11.3075 16.3266C11.3424 16.3431 11.3755 16.3615 11.4113 16.3778L11.4163 16.3809C11.3804 16.3634 11.344 16.3453 11.3078 16.3266H11.3075ZM19.2012 10.843V10.8358V10.8439V10.843Z" fill="url(#paint0_linear_22435_14046)"/>
<path d="M19.9436 10.4485C19.6181 9.66332 18.9584 8.81563 18.4406 8.54785C18.8621 9.37617 19.1059 10.207 19.1991 10.8269V10.8422C19.9062 12.7632 19.5208 14.7167 18.9659 15.9102C18.1073 17.7569 16.0287 19.6497 12.7747 19.5575C9.262 19.4576 6.16517 16.842 5.58683 13.419C5.48145 12.8788 5.58683 12.6048 5.63983 12.1664C5.5753 12.5042 5.55067 12.602 5.51855 13.2025V13.2409C5.51855 17.3878 8.87322 20.7499 13.011 20.7499C16.7171 20.7499 19.794 18.0534 20.3966 14.5114C20.4091 14.4155 20.4194 14.3186 20.4306 14.2217C20.5787 12.9338 20.4131 11.5802 19.9436 10.4485V10.4485Z" fill="url(#paint1_radial_22435_14046)"/>
<path d="M19.9436 10.4485C19.6181 9.66332 18.9584 8.81563 18.4406 8.54785C18.8621 9.37617 19.1059 10.207 19.1991 10.8269V10.8422C19.9062 12.7632 19.5208 14.7167 18.9659 15.9102C18.1073 17.7569 16.0287 19.6497 12.7747 19.5575C9.262 19.4576 6.16517 16.842 5.58683 13.419C5.48145 12.8788 5.58683 12.6048 5.63983 12.1664C5.5753 12.5042 5.55067 12.602 5.51855 13.2025V13.2409C5.51855 17.3878 8.87322 20.7499 13.011 20.7499C16.7171 20.7499 19.794 18.0534 20.3966 14.5114C20.4091 14.4155 20.4194 14.3186 20.4306 14.2217C20.5787 12.9338 20.4131 11.5802 19.9436 10.4485V10.4485Z" fill="url(#paint2_radial_22435_14046)"/>
<path d="M16.3019 11.3311C16.3185 11.3427 16.3331 11.3542 16.3487 11.3658C16.1607 11.0312 15.9264 10.7248 15.6528 10.4559C13.3239 8.12186 15.0424 5.39475 15.332 5.25602L15.3351 5.25195C13.453 6.3568 12.8145 8.40057 12.7559 9.42324C12.8432 9.4173 12.9301 9.4098 13.019 9.4098C14.4235 9.4098 15.6469 10.1841 16.3019 11.3311Z" fill="url(#paint3_radial_22435_14046)"/>
<path d="M13.0239 11.7971C13.0117 11.9846 12.3533 12.6282 12.1229 12.6282C9.99224 12.6282 9.64648 13.9199 9.64648 13.9199C9.74002 15.0079 10.4964 15.9037 11.4114 16.3777C11.4532 16.3993 11.4953 16.4186 11.5361 16.438C11.6094 16.4693 11.683 16.5005 11.7562 16.5283C12.07 16.6392 12.3987 16.7024 12.7312 16.7158C16.4656 16.8914 17.1895 12.2408 14.4942 10.8904C15.1842 10.7701 15.9006 11.0485 16.3006 11.33C15.6459 10.183 14.4222 9.40869 13.0177 9.40869C12.9288 9.40869 12.8418 9.41619 12.7545 9.42213C12.003 9.47431 11.2845 9.75218 10.6928 10.2195C10.8072 10.3167 10.9363 10.446 11.2078 10.7141C11.7173 11.2178 13.0211 11.7362 13.0239 11.7971V11.7971Z" fill="url(#paint4_radial_22435_14046)"/>
<path d="M13.0239 11.7971C13.0117 11.9846 12.3533 12.6282 12.1229 12.6282C9.99224 12.6282 9.64648 13.9199 9.64648 13.9199C9.74002 15.0079 10.4964 15.9037 11.4114 16.3777C11.4532 16.3993 11.4953 16.4186 11.5361 16.438C11.6094 16.4693 11.683 16.5005 11.7562 16.5283C12.07 16.6392 12.3987 16.7024 12.7312 16.7158C16.4656 16.8914 17.1895 12.2408 14.4942 10.8904C15.1842 10.7701 15.9006 11.0485 16.3006 11.33C15.6459 10.183 14.4222 9.40869 13.0177 9.40869C12.9288 9.40869 12.8418 9.41619 12.7545 9.42213C12.003 9.47431 11.2845 9.75218 10.6928 10.2195C10.8072 10.3167 10.9363 10.446 11.2078 10.7141C11.7173 11.2178 13.0211 11.7362 13.0239 11.7971V11.7971Z" fill="url(#paint5_radial_22435_14046)"/>
<path d="M10.3444 9.96987C10.4052 10.0092 10.4551 10.0424 10.5003 10.0727C10.3296 9.47378 10.3224 8.83995 10.4794 8.2373C9.70962 8.58882 9.11101 9.14343 8.67578 9.63429C8.71101 9.63336 9.79785 9.61367 10.3444 9.96987V9.96987Z" fill="url(#paint6_radial_22435_14046)"/>
<path d="M5.58722 13.4191C6.16556 16.8421 9.26238 19.4576 12.7776 19.5576C16.0316 19.6498 18.1089 17.7569 18.9688 15.9103C19.5237 14.7164 19.9091 12.7633 19.202 10.8423V10.8279C19.202 10.8298 19.202 10.8323 19.2035 10.8404C19.4692 12.5799 18.5865 14.2649 17.2066 15.4045C17.2052 15.4077 17.2039 15.4109 17.2026 15.4142C14.5136 17.6085 11.9405 16.738 11.4195 16.3828C11.3834 16.3653 11.3469 16.3471 11.3107 16.3284C9.74282 15.5785 9.09527 14.1459 9.23401 12.9183C7.91054 12.9183 7.4591 11.799 7.4591 11.799C7.4591 11.799 8.64757 10.9498 10.2139 11.6884C11.6646 12.3727 13.027 11.7994 13.027 11.799C13.0242 11.7381 11.7204 11.2182 11.2119 10.7161C10.9403 10.448 10.8113 10.3186 10.6968 10.2215C10.6349 10.169 10.5702 10.12 10.5029 10.0746C10.4583 10.0434 10.4094 10.0121 10.347 9.9718C9.8005 9.6156 8.71367 9.63529 8.67781 9.63623H8.67438C8.37726 9.25909 8.39815 8.01521 8.41499 7.75556C8.41156 7.73931 8.19363 7.86898 8.16557 7.88866C7.90339 8.07611 7.65832 8.28649 7.43322 8.51732C7.17707 8.77759 6.94305 9.05884 6.73361 9.35814C6.25173 10.0425 5.90999 10.8159 5.72814 11.6334C5.72222 11.6478 5.45565 12.8142 5.58722 13.4191V13.4191Z" fill="url(#paint7_radial_22435_14046)"/>
<path d="M15.653 10.4558C15.9266 10.7248 16.1609 11.0311 16.3489 11.3657C16.3879 11.395 16.4253 11.4263 16.4612 11.4594C18.1597 13.0267 17.2711 15.2455 17.2035 15.4048C18.5834 14.2653 19.466 12.5802 19.2004 10.8408C18.3533 8.72294 16.9167 7.86932 15.7435 6.01114C15.6839 5.9174 15.6247 5.82367 15.5667 5.72337C15.534 5.66681 15.5075 5.61557 15.4844 5.56714C15.4358 5.47319 15.3982 5.37389 15.3725 5.27125C15.3727 5.26637 15.371 5.26159 15.3679 5.25784C15.3648 5.25409 15.3604 5.25163 15.3556 5.25094C15.351 5.24969 15.3462 5.24969 15.3416 5.25094C15.3403 5.2515 15.3392 5.25224 15.3382 5.25312C15.3363 5.25312 15.3344 5.25531 15.3325 5.25594C15.0426 5.39467 13.3241 8.12178 15.653 10.4558V10.4558Z" fill="url(#paint8_radial_22435_14046)"/>
<path d="M16.4603 11.4579C16.4245 11.4247 16.387 11.3935 16.3481 11.3641C16.3328 11.3526 16.3169 11.341 16.3013 11.3294C15.9013 11.0482 15.1849 10.7695 14.4949 10.8898C17.1899 12.2403 16.4662 16.8908 12.7318 16.7152C12.3993 16.7019 12.0707 16.6387 11.7569 16.5278C11.6837 16.5003 11.6101 16.47 11.5368 16.4375C11.4944 16.4181 11.4523 16.3987 11.4121 16.3772L11.4171 16.3803C11.9381 16.7365 14.5111 17.607 17.2001 15.4117C17.2001 15.4117 17.2017 15.4076 17.2042 15.402C17.2709 15.2455 18.1595 13.0267 16.4603 11.4579Z" fill="url(#paint9_radial_22435_14046)"/>
<path d="M9.64656 13.9201C9.64656 13.9201 9.99232 12.6284 12.123 12.6284C12.3534 12.6284 13.0118 11.9841 13.024 11.7972C13.0361 11.6104 11.6615 12.3709 10.2109 11.6866C8.64453 10.948 7.45605 11.7972 7.45605 11.7972C7.45605 11.7972 7.9075 12.9165 9.23097 12.9165C9.09223 14.1441 9.73978 15.5755 11.3077 16.3266C11.3426 16.3432 11.3756 16.3616 11.4115 16.3779C10.4965 15.9048 9.74103 15.008 9.64656 13.9201Z" fill="url(#paint10_radial_22435_14046)"/>
<path d="M19.9436 10.4486C19.6181 9.66344 18.9584 8.81574 18.4405 8.54797C18.862 9.37629 19.1058 10.2071 19.199 10.827C19.199 10.827 19.199 10.8314 19.2006 10.8395C18.3535 8.72294 16.9169 7.86931 15.7437 6.01114C15.6841 5.9174 15.6249 5.82367 15.5669 5.72337C15.5342 5.66681 15.5077 5.61557 15.4846 5.56714C15.436 5.47319 15.3984 5.37389 15.3727 5.27125C15.3729 5.26637 15.3713 5.26159 15.3682 5.25784C15.365 5.25409 15.3607 5.25163 15.3558 5.25094C15.3512 5.24969 15.3464 5.24969 15.3418 5.25094C15.3406 5.2515 15.3394 5.25224 15.3384 5.25312C15.3365 5.25312 15.3346 5.25531 15.3328 5.25594L15.3359 5.25187C13.4537 6.35672 12.8152 8.40049 12.7566 9.42316C12.8439 9.41722 12.9309 9.40972 13.0197 9.40972C14.4243 9.40972 15.6477 10.184 16.3027 11.331C15.9027 11.0498 15.1862 10.7711 14.4963 10.8914C17.1912 12.2418 16.4676 16.8924 12.7332 16.7168C12.4007 16.7035 12.0721 16.6403 11.7583 16.5293C11.685 16.5018 11.6115 16.4715 11.5382 16.439C11.4958 16.4197 11.4537 16.4003 11.4135 16.3787L11.4185 16.3819C11.3823 16.3644 11.3458 16.3462 11.3097 16.3275C11.3446 16.3441 11.3776 16.3625 11.4135 16.3787C10.4966 15.9047 9.74115 15.008 9.64668 13.92C9.64668 13.92 9.99243 12.6283 12.1231 12.6283C12.3535 12.6283 13.0119 11.984 13.0241 11.7972C13.0213 11.7363 11.7175 11.2163 11.209 10.7142C10.9374 10.4461 10.8083 10.3168 10.6939 10.2196C10.632 10.1671 10.5673 10.1181 10.5 10.0728C10.3293 9.47386 10.3221 8.84003 10.4791 8.23739C9.70935 8.5889 9.11075 9.14351 8.67551 9.63438H8.67208C8.37496 9.25724 8.39585 8.01336 8.41269 7.75371C8.40926 7.73746 8.19133 7.86713 8.16327 7.88681C7.90109 8.07426 7.65602 8.28464 7.43092 8.51547C7.17477 8.77574 6.94075 9.05699 6.7313 9.35629C6.24943 10.0407 5.90769 10.814 5.72584 11.6316C5.72241 11.6478 5.71929 11.6647 5.71586 11.6813C5.70184 11.7472 5.63823 12.0828 5.6295 12.1546C5.6295 12.1603 5.6295 12.1493 5.6295 12.1546C5.57113 12.5014 5.53375 12.8514 5.51758 13.2026V13.2411C5.51758 17.388 8.87224 20.75 13.0101 20.75C16.7161 20.75 19.793 18.0535 20.3956 14.5115C20.4081 14.4156 20.4184 14.3187 20.4296 14.2219C20.5786 12.9339 20.4131 11.5804 19.9436 10.4486ZM19.2003 10.8342V10.8423V10.8342Z" fill="url(#paint11_linear_22435_14046)"/>
</g>
<defs>
<linearGradient id="paint0_linear_22435_14046" x1="18.9518" y1="7.65122" x2="6.48709" y2="19.651" gradientUnits="userSpaceOnUse">
<stop offset="0.05" stop-color="#FFF44F"/>
<stop offset="0.11" stop-color="#FFE847"/>
<stop offset="0.22" stop-color="#FFC830"/>
<stop offset="0.37" stop-color="#FF980E"/>
<stop offset="0.4" stop-color="#FF8B16"/>
<stop offset="0.46" stop-color="#FF672A"/>
<stop offset="0.53" stop-color="#FF3647"/>
<stop offset="0.7" stop-color="#E31587"/>
</linearGradient>
<radialGradient id="paint1_radial_22435_14046" cx="0" cy="0" r="1" gradientUnits="userSpaceOnUse" gradientTransform="translate(18.3769 6.97026) scale(15.6201 15.6543)">
<stop offset="0.13" stop-color="#FFBD4F"/>
<stop offset="0.19" stop-color="#FFAC31"/>
<stop offset="0.25" stop-color="#FF9D17"/>
<stop offset="0.28" stop-color="#FF980E"/>
<stop offset="0.4" stop-color="#FF563B"/>
<stop offset="0.47" stop-color="#FF3750"/>
<stop offset="0.71" stop-color="#F5156C"/>
<stop offset="0.78" stop-color="#EB0878"/>
<stop offset="0.86" stop-color="#E50080"/>
</radialGradient>
<radialGradient id="paint2_radial_22435_14046" cx="0" cy="0" r="1" gradientUnits="userSpaceOnUse" gradientTransform="translate(12.6693 13.37) scale(15.6201 15.6543)">
<stop offset="0.3" stop-color="#960E18"/>
<stop offset="0.35" stop-color="#B11927" stop-opacity="0.74"/>
<stop offset="0.43" stop-color="#DB293D" stop-opacity="0.34"/>
<stop offset="0.5" stop-color="#F5334B" stop-opacity="0.09"/>
<stop offset="0.53" stop-color="#FF3750" stop-opacity="0"/>
</radialGradient>
<radialGradient id="paint3_radial_22435_14046" cx="0" cy="0" r="1" gradientUnits="userSpaceOnUse" gradientTransform="translate(14.5523 3.41784) scale(11.3161 11.3409)">
<stop offset="0.13" stop-color="#FFF44F"/>
<stop offset="0.25" stop-color="#FFDC3E"/>
<stop offset="0.51" stop-color="#FF9D12"/>
<stop offset="0.53" stop-color="#FF980E"/>
</radialGradient>
<radialGradient id="paint4_radial_22435_14046" cx="0" cy="0" r="1" gradientUnits="userSpaceOnUse" gradientTransform="translate(10.9416 17.4591) scale(7.43731 7.45363)">
<stop offset="0.35" stop-color="#3A8EE6"/>
<stop offset="0.47" stop-color="#5C79F0"/>
<stop offset="0.67" stop-color="#9059FF"/>
<stop offset="1" stop-color="#C139E6"/>
</radialGradient>
<radialGradient id="paint5_radial_22435_14046" cx="0" cy="0" r="1" gradientTransform="matrix(3.82499 -0.948465 1.10412 4.50521 12.8934 11.5095)" gradientUnits="userSpaceOnUse">
<stop offset="0.21" stop-color="#9059FF" stop-opacity="0"/>
<stop offset="0.28" stop-color="#8C4FF3" stop-opacity="0.06"/>
<stop offset="0.75" stop-color="#7716A8" stop-opacity="0.45"/>
<stop offset="0.97" stop-color="#6E008B" stop-opacity="0.6"/>
</radialGradient>
<radialGradient id="paint6_radial_22435_14046" cx="0" cy="0" r="1" gradientUnits="userSpaceOnUse" gradientTransform="translate(12.4716 6.32976) scale(5.35062 5.36237)">
<stop stop-color="#FFE226"/>
<stop offset="0.12" stop-color="#FFDB27"/>
<stop offset="0.3" stop-color="#FFC82A"/>
<stop offset="0.5" stop-color="#FFA930"/>
<stop offset="0.73" stop-color="#FF7E37"/>
<stop offset="0.79" stop-color="#FF7139"/>
</radialGradient>
<radialGradient id="paint7_radial_22435_14046" cx="0" cy="0" r="1" gradientUnits="userSpaceOnUse" gradientTransform="translate(16.6782 2.92874) scale(22.8282 22.8783)">
<stop offset="0.11" stop-color="#FFF44F"/>
<stop offset="0.46" stop-color="#FF980E"/>
<stop offset="0.62" stop-color="#FF5634"/>
<stop offset="0.72" stop-color="#FF3647"/>
<stop offset="0.9" stop-color="#E31587"/>
</radialGradient>
<radialGradient id="paint8_radial_22435_14046" cx="0" cy="0" r="1" gradientTransform="matrix(1.67225 16.5916 -10.8696 1.17314 14.4709 5.42838)" gradientUnits="userSpaceOnUse">
<stop stop-color="#FFF44F"/>
<stop offset="0.06" stop-color="#FFE847"/>
<stop offset="0.17" stop-color="#FFC830"/>
<stop offset="0.3" stop-color="#FF980E"/>
<stop offset="0.36" stop-color="#FF8B16"/>
<stop offset="0.45" stop-color="#FF672A"/>
<stop offset="0.57" stop-color="#FF3647"/>
<stop offset="0.74" stop-color="#E31587"/>
</radialGradient>
<radialGradient id="paint9_radial_22435_14046" cx="0" cy="0" r="1" gradientUnits="userSpaceOnUse" gradientTransform="translate(12.3456 8.31581) scale(14.2517 14.283)">
<stop offset="0.14" stop-color="#FFF44F"/>
<stop offset="0.48" stop-color="#FF980E"/>
<stop offset="0.59" stop-color="#FF5634"/>
<stop offset="0.66" stop-color="#FF3647"/>
<stop offset="0.9" stop-color="#E31587"/>
</radialGradient>
<radialGradient id="paint10_radial_22435_14046" cx="0" cy="0" r="1" gradientUnits="userSpaceOnUse" gradientTransform="translate(16.108 9.152) scale(15.5986 15.6328)">
<stop offset="0.09" stop-color="#FFF44F"/>
<stop offset="0.23" stop-color="#FFE141"/>
<stop offset="0.51" stop-color="#FFAF1E"/>
<stop offset="0.63" stop-color="#FF980E"/>
</radialGradient>
<linearGradient id="paint11_linear_22435_14046" x1="18.8022" y1="7.58686" x2="8.19557" y2="18.1705" gradientUnits="userSpaceOnUse">
<stop offset="0.17" stop-color="#FFF44F" stop-opacity="0.8"/>
<stop offset="0.27" stop-color="#FFF44F" stop-opacity="0.63"/>
<stop offset="0.49" stop-color="#FFF44F" stop-opacity="0.22"/>
<stop offset="0.6" stop-color="#FFF44F" stop-opacity="0"/>
</linearGradient>
<clipPath id="clip0_22435_14046">
<rect width="16" height="16" fill="white" transform="translate(5 5)"/>
</clipPath>
</defs>
</svg>
