<svg width="32" height="32" viewBox="0 0 32 32" fill="none" xmlns="http://www.w3.org/2000/svg">
<path d="M19.916 12.9004C21.165 12.939 21.7906 12.9583 22.3477 13.502C22.9045 14.0458 22.9434 14.7474 23.0205 16.1494C23.0445 16.5847 23.0605 17.0155 23.0605 17.3965L23.0498 17.999C23.0429 18.2086 23.0325 18.425 23.0205 18.6426C22.9434 20.0446 22.9046 20.7462 22.3477 21.29L22.2422 21.3857C21.71 21.836 21.0871 21.8554 19.916 21.8916C19.8336 21.8941 19.7515 21.8955 19.6719 21.8955C19.5922 21.8955 19.5102 21.8941 19.4277 21.8916C18.2565 21.8554 17.6338 21.8361 17.1016 21.3857L16.9971 21.29C16.5792 20.8821 16.4523 20.3856 16.3828 19.5713L16.3242 18.6426C16.3122 18.425 16.3018 18.2086 16.2949 17.999L16.2842 17.3965C16.2842 17.206 16.288 17.0026 16.2949 16.793L16.3242 16.1494C16.3965 14.8348 16.4349 14.1367 16.8984 13.6064L16.9971 13.502C17.554 12.9586 18.1788 12.939 19.4277 12.9004C19.5102 12.8978 19.5922 12.8965 19.6719 12.8965C19.7515 12.8965 19.8336 12.8978 19.916 12.9004ZM14.8877 20.2412C15.2549 20.2412 15.5526 20.5391 15.5527 20.9062C15.5527 21.2735 15.255 21.5713 14.8877 21.5713H9.72461C9.35755 21.571 9.06055 21.2734 9.06055 20.9062C9.06072 20.5393 9.35766 20.2415 9.72461 20.2412H14.8877ZM19.4688 14.2295C18.802 14.2501 18.4637 14.2655 18.2178 14.3154C18.0494 14.3496 17.9959 14.3857 17.9258 14.4541C17.8781 14.5006 17.8296 14.553 17.7812 14.7803C17.7186 15.0749 17.6922 15.4811 17.6514 16.2227C17.6282 16.6442 17.6143 17.0487 17.6143 17.3965C17.6143 17.7442 17.6282 18.148 17.6514 18.5693C17.6922 19.3107 17.7187 19.7171 17.7812 20.0117C17.8295 20.2388 17.8782 20.2914 17.9258 20.3379C17.9959 20.4063 18.0494 20.4424 18.2178 20.4766C18.4637 20.5265 18.802 20.5419 19.4688 20.5625C19.5388 20.5647 19.6072 20.5654 19.6719 20.5654C19.7366 20.5654 19.8049 20.5647 19.875 20.5625C20.5422 20.5419 20.881 20.5265 21.127 20.4766C21.295 20.4423 21.3488 20.4064 21.4189 20.3379C21.4665 20.2915 21.5153 20.2384 21.5635 20.0117C21.6261 19.7171 21.6516 19.3107 21.6924 18.5693C21.7156 18.148 21.7305 17.7442 21.7305 17.3965C21.7305 17.0487 21.7156 16.6442 21.6924 16.2227C21.6516 15.4813 21.6261 15.0749 21.5635 14.7803C21.5153 14.5536 21.4665 14.5005 21.4189 14.4541C21.3488 14.3856 21.295 14.3496 21.127 14.3154C20.881 14.2654 20.5422 14.2501 19.875 14.2295C19.8049 14.2273 19.7366 14.2266 19.6719 14.2266C19.6072 14.2266 19.5388 14.2273 19.4688 14.2295ZM16 10C16.6659 10 17.387 10.0243 18.0967 10.0615C18.7721 10.0969 19.3396 10.1294 19.8262 10.1807C19.841 10.1816 19.8561 10.1797 19.8711 10.1816C20.0307 10.2023 20.4011 10.237 20.7803 10.335C20.8041 10.3411 20.828 10.3496 20.8525 10.3564C20.874 10.3624 20.8949 10.3698 20.916 10.376C21.2675 10.4805 21.6784 10.6561 22.0059 10.9834C22.2655 11.2431 22.2654 11.6651 22.0059 11.9248C21.7462 12.1845 21.3242 12.1845 21.0645 11.9248C21.0465 11.9069 21.025 11.8919 21.0039 11.875C20.8462 11.7535 20.6451 11.6635 20.3076 11.5928C19.7998 11.4865 19.1252 11.4472 18.0264 11.3896C17.3314 11.3532 16.6354 11.3301 16 11.3301C15.3646 11.3301 14.6686 11.3532 13.9736 11.3896C12.8748 11.4472 12.2002 11.4865 11.6924 11.5928C11.2516 11.6851 11.0426 11.8089 10.8604 11.9951C10.4727 12.3913 10.3959 12.732 10.334 14.75C10.3313 14.8369 10.3301 14.9208 10.3301 15C10.3301 15.0792 10.3313 15.1631 10.334 15.25C10.3959 17.268 10.4728 17.6088 10.8604 18.0049C11.0427 18.1912 11.2516 18.3149 11.6924 18.4072C12.2002 18.5136 12.8748 18.5528 13.9736 18.6104L13.9727 18.6113L14.7324 18.6455C15.0989 18.6623 15.3825 18.9733 15.3662 19.3398C15.3497 19.7066 15.0387 19.991 14.6719 19.9746L13.6201 19.9268C13.6066 19.9261 13.5933 19.9223 13.5801 19.9209C11.8017 19.8258 10.8194 19.7402 10.0654 19.083L9.90918 18.9355C9.19312 18.2037 9.08152 17.3951 9.02637 15.9502L9.00488 15.29C9.00186 15.1911 9 15.094 9 15L9.00488 14.71V14.708C9.06226 12.8375 9.09105 11.9005 9.90918 11.0645C10.7276 10.2282 11.7865 10.1724 13.9033 10.0615C14.613 10.0243 15.3341 10 16 10ZM20.3975 18.5332C20.7646 18.5332 21.0623 18.8311 21.0625 19.1982C21.0625 19.5655 20.7647 19.8633 20.3975 19.8633H19.165C18.7978 19.8633 18.5 19.5655 18.5 19.1982C18.5002 18.8311 18.7979 18.5332 19.165 18.5332H20.3975Z" fill="#7D5E93"/>
</svg>
