<svg width="53" height="32" viewBox="0 0 53 32" fill="none" xmlns="http://www.w3.org/2000/svg">
<g clip-path="url(#clip0_22435_14297)">
<path fill-rule="evenodd" clip-rule="evenodd" d="M14 10C17.309 10 20 12.691 20 16C20 19.309 17.309 22 14 22C10.691 22 8 19.309 8 16C8 12.691 10.691 10 14 10ZM13.3955 16.7314L11.6328 14.9678L10.749 15.8516L12.9541 18.0566C13.071 18.1745 13.2297 18.2401 13.3955 18.2402C13.5615 18.2402 13.7209 18.1737 13.8379 18.0557L17.25 14.6436L16.3662 13.7598L13.3955 16.7314Z" fill="#3DA321"/>
</g>
<path d="M38.3638 19.5V12.5H39.5863L43.1906 17.4771L42.167 16.9581H42.8947V12.5H44.2966V19.5H43.0839L39.4699 14.5035L40.4983 15.0225H39.7658V19.5H38.3638Z" fill="#14092B"/>
<path d="M32.402 17.2928V16.148H34.1969C34.6173 16.148 34.9439 16.0412 35.1768 15.8278C35.4129 15.6111 35.5309 15.3039 35.5309 14.9061V14.8964C35.5309 14.4986 35.4129 14.193 35.1768 13.9796C34.9439 13.7661 34.6173 13.6594 34.1969 13.6594H32.402V12.5H34.5558C35.0474 12.5 35.4775 12.6003 35.8462 12.8008C36.2149 12.998 36.5011 13.2762 36.7048 13.6351C36.9118 13.9941 37.0153 14.4129 37.0153 14.8915V14.9012C37.0153 15.3831 36.9118 15.8035 36.7048 16.1625C36.5011 16.5215 36.2149 16.7996 35.8462 16.9969C35.4775 17.1942 35.0474 17.2928 34.5558 17.2928H32.402ZM31.6695 19.5V12.5H33.1345V19.5H31.6695Z" fill="#14092B"/>
<path d="M26.3333 19.5L24 12.5H25.6445L27.192 17.8701H27.2793L28.8219 12.5H30.4712L28.1379 19.5H26.3333Z" fill="#14092B"/>
<defs>
<clipPath id="clip0_22435_14297">
<rect width="12" height="12" fill="white" transform="translate(8 10)"/>
</clipPath>
</defs>
</svg>
