<svg width="156" height="144" viewBox="0 0 156 144" fill="none" xmlns="http://www.w3.org/2000/svg">
<mask id="mask0_22499_9920" style="mask-type:alpha" maskUnits="userSpaceOnUse" x="0" y="0" width="156" height="144">
<rect width="156" height="144" fill="#D9D9D9"/>
</mask>
<g mask="url(#mask0_22499_9920)">
<path d="M32.879 141.087C29.6665 141.661 36.4871 139.359 34.3454 137.228C27.3952 130.451 28.3774 131.859 34.2636 122.651C45.77 104.644 22.5185 100.068 11.8101 90.6071C7.00151 86.3583 4.43695 80.9004 4.43695 80.9004C4.43695 80.9004 5.52143 81.7201 6.94695 82.2188C8.01096 82.5876 8.66575 82.5672 8.66575 82.5672C8.66575 82.5672 7.36983 80.7023 6.90602 79.9031C5.66467 77.7719 4.55972 75.3674 3.6594 72.6283C-0.808116 59.0007 5.15994 45.8035 5.15994 45.8035C5.15994 45.8035 9.29324 57.737 20.2813 62.4776C30.5532 66.9177 54.8346 64.9914 71.3133 83.7899C81.1009 94.9515 86.8302 113.279 81.7966 128.621C77.636 141.306 53.7024 146.074 38.5742 149.223C35.8255 149.796 36.3848 150.029 35.198 148.505C32.9472 145.37 30.2394 142.72 27.8795 139.721" fill="url(#paint0_linear_22499_9920)"/>
<path d="M69.267 92.3284C66.6411 87.82 65.0723 85.9689 59.3157 81.4878C54.2207 77.5259 46.9022 75.825 46.9022 75.825C46.9022 75.825 49.4804 78.7145 50.2375 79.7596C50.9809 80.7911 52.8907 84.0904 52.8907 84.0904C53.7569 84.3295 49.0711 81.3307 44.1876 78.7487C39.1062 76.0641 32.2446 73.9807 32.2446 73.9807C32.2446 73.9807 38.8947 79.0492 43.1576 83.175C49.9578 89.76 56.6489 97.6838 57.9448 103.353C59.1998 108.832 60.1751 115.663 66.5183 115.342C72.8615 115.021 76.4901 104.405 69.2534 92.3284H69.267Z" fill="url(#paint1_linear_22499_9920)"/>
<path d="M97.2113 55.1002L146.211 37.2375L145.174 35.0106L73.4892 46.7597L40.7365 60.4897C40.6615 60.517 40.6205 60.599 40.641 60.6742L41.0912 62.819C41.173 63.2016 41.5345 63.4611 41.9233 63.3997L97.2113 55.1002Z" fill="url(#paint2_linear_22499_9920)"/>
<path d="M120.783 108.183C120.783 108.183 116.541 82.4988 130.687 73.0859C132.569 71.829 134.104 71.5558 135.181 71.0298C128.702 69.1582 125.216 61.9174 125.216 61.9174C125.216 61.9174 125.312 61.9174 125.489 61.9038C123.225 61.7672 120.674 61.2822 118.028 60.4625C109.966 57.9624 107.96 57.2042 100.635 55.6126C89.2649 53.1466 84.0403 57.2451 74.5937 61.1592C73.5911 61.8013 71.4017 63.5637 72.227 65.3124C72.9022 66.74 76.0465 64.8684 76.1488 66.4531C76.2102 67.4573 72.909 67.8944 73.9867 69.8754C75.4395 72.5599 80.6709 71.1869 79.8456 77.6557C78.9794 84.4251 71.7495 108.183 71.7495 108.183C71.7495 108.183 77.1924 111.448 77.4584 113.914C78.1132 114.98 79.0135 116.598 80.0025 119.638C81.7827 125.096 82.342 128.887 82.5193 128.061C82.7171 127.111 82.5193 125.54 82.6898 124.112C83.0308 121.182 83.0308 118.176 83.0308 118.176C83.0308 118.176 84.3199 120.888 84.811 123.826C85.2817 126.667 85.991 129.796 85.991 129.796C85.991 129.796 86.448 125.964 86.8368 125.492C93.1458 138.628 94.2576 151.695 94.394 160.828C94.4486 160.78 94.4759 160.733 94.4759 160.678C94.4759 146.012 93.9029 120.875 92.8457 113.866C93.0367 115.273 94.4077 115.909 96.1742 123.341C97.4974 128.928 97.5247 130.82 97.6952 129.994C97.893 129.044 98.0976 124.365 98.2613 122.938C98.6023 120.007 98.7524 115.82 98.7524 115.82C98.7524 115.82 99.8914 119.713 100.383 122.651C100.853 125.492 101.788 131.811 101.788 131.811C101.788 131.811 105.007 119.993 105.396 119.529C106.201 135.916 104.052 152.481 102.933 162.871C106.589 161.505 111.753 162.249 114.563 162.557C114.733 162.577 114.897 162.591 115.067 162.611C110.32 159.25 107.101 153.786 107.81 145.527C108.833 133.614 118.082 124.877 128.709 125.062" fill="url(#paint3_linear_22499_9920)"/>
<path d="M88.7671 166.614C88.2556 161.484 93.6848 161.477 94.4078 160.821C94.2714 151.682 93.1596 138.614 86.8505 125.485C86.4618 125.957 86.0048 129.789 86.0048 129.789C86.0048 129.789 85.2954 126.66 84.8248 123.819C84.3405 120.881 83.0446 118.17 83.0446 118.17C83.0446 118.17 83.0446 121.175 82.7036 124.106C82.5399 125.533 82.7309 127.104 82.5331 128.054C82.3626 128.88 81.8033 125.089 80.0163 119.631C79.0205 116.592 78.1269 114.973 77.4722 113.907C79.3137 130.889 86.2776 141.183 86.8369 160.712C86.8437 161.047 82.0011 160.828 81.9192 165.63C81.8851 167.707 83.7335 168.411 90.3018 169.292C89.5038 168.663 88.8831 167.803 88.7671 166.628V166.614Z" fill="url(#paint4_linear_22499_9920)"/>
<path d="M88.7671 166.614C88.2556 161.484 93.6848 161.477 94.4078 160.821C94.2714 151.682 93.1596 138.614 86.8505 125.485C86.4618 125.957 86.0048 129.789 86.0048 129.789C86.0048 129.789 85.2954 126.66 84.8248 123.819C84.3405 120.881 83.0446 118.17 83.0446 118.17C83.0446 118.17 83.0446 121.175 82.7036 124.106C82.5399 125.533 82.7309 127.104 82.5331 128.054C82.3626 128.88 81.8033 125.089 80.0163 119.631C79.0205 116.592 78.1269 114.973 77.4722 113.907C79.3137 130.889 86.2776 141.183 86.8369 160.712C86.8437 161.047 82.0011 160.828 81.9192 165.63C81.8851 167.707 83.7335 168.411 90.3018 169.292C89.5038 168.663 88.8831 167.803 88.7671 166.628V166.614Z" fill="url(#paint5_linear_22499_9920)"/>
<path opacity="0.6" d="M88.7671 166.614C88.2556 161.484 93.6848 161.477 94.4078 160.821C94.2714 151.682 93.1596 138.614 86.8505 125.485C86.4618 125.957 86.0048 129.789 86.0048 129.789C86.0048 129.789 85.2954 126.66 84.8248 123.819C84.3405 120.881 83.0446 118.17 83.0446 118.17C83.0446 118.17 83.0446 121.175 82.7036 124.106C82.5399 125.533 82.7309 127.104 82.5331 128.054C82.3626 128.88 81.8033 125.089 80.0163 119.631C79.0205 116.592 78.1269 114.973 77.4722 113.907C79.3137 130.889 86.2776 141.183 86.8369 160.712C86.8437 161.047 82.0011 160.828 81.9192 165.63C81.8851 167.707 83.7335 168.411 90.3018 169.292C89.5038 168.663 88.8831 167.803 88.7671 166.628V166.614Z" fill="url(#paint6_linear_22499_9920)"/>
<path d="M101.119 163.834C101.658 163.431 102.279 163.123 102.947 162.871C104.066 152.481 106.207 135.916 105.409 119.529C105.021 120 101.801 131.811 101.801 131.811C101.801 131.811 100.867 125.492 100.396 122.651C99.9119 119.713 98.766 115.82 98.766 115.82C98.766 115.82 98.616 120.007 98.275 122.937C98.1113 124.365 97.9066 129.044 97.7088 129.994C97.5383 130.82 97.5111 128.928 96.1878 123.34C94.4213 115.902 93.0572 115.273 92.8594 113.866C93.9166 120.875 94.4895 146.012 94.4895 160.678C94.4895 160.733 94.4622 160.78 94.4077 160.828C94.4622 164.565 94.3599 167.639 94.3804 169.79C96.3584 170.029 98.0362 170.234 99.5845 170.426C98.7456 169.121 97.6884 166.402 101.133 163.834H101.119Z" fill="url(#paint7_linear_22499_9920)"/>
<path d="M101.119 163.834C101.658 163.431 102.279 163.123 102.947 162.871C104.066 152.481 106.207 135.916 105.409 119.529C105.021 120 101.801 131.811 101.801 131.811C101.801 131.811 100.867 125.492 100.396 122.651C99.9119 119.713 98.766 115.82 98.766 115.82C98.766 115.82 98.616 120.007 98.275 122.937C98.1113 124.365 97.9066 129.044 97.7088 129.994C97.5383 130.82 97.5111 128.928 96.1878 123.34C94.4213 115.902 93.0572 115.273 92.8594 113.866C93.9166 120.875 94.4895 146.012 94.4895 160.678C94.4895 160.733 94.4622 160.78 94.4077 160.828C94.4622 164.565 94.3599 167.639 94.3804 169.79C96.3584 170.029 98.0362 170.234 99.5845 170.426C98.7456 169.121 97.6884 166.402 101.133 163.834H101.119Z" fill="url(#paint8_linear_22499_9920)"/>
<path opacity="0.6" d="M101.119 163.834C101.658 163.431 102.279 163.123 102.947 162.871C104.066 152.481 106.207 135.916 105.409 119.529C105.021 120 101.801 131.811 101.801 131.811C101.801 131.811 100.867 125.492 100.396 122.651C99.9119 119.713 98.766 115.82 98.766 115.82C98.766 115.82 98.616 120.007 98.275 122.937C98.1113 124.365 97.9066 129.044 97.7088 129.994C97.5383 130.82 97.5111 128.928 96.1878 123.34C94.4213 115.902 93.0572 115.273 92.8594 113.866C93.9166 120.875 94.4895 146.012 94.4895 160.678C94.4895 160.733 94.4622 160.78 94.4077 160.828C94.4622 164.565 94.3599 167.639 94.3804 169.79C96.3584 170.029 98.0362 170.234 99.5845 170.426C98.7456 169.121 97.6884 166.402 101.133 163.834H101.119Z" fill="url(#paint9_linear_22499_9920)"/>
<path d="M129.063 60.3463C127.283 61.5827 126.014 61.8423 125.496 61.8969C125.319 61.9174 125.223 61.9106 125.223 61.9106C125.223 61.9106 128.708 69.1513 135.188 71.0229C136.886 70.1964 137.937 69.6021 140.113 68.4545C144.396 66.1935 146.626 62.1087 146.961 59.3285C146.558 59.5403 146.053 59.6632 145.446 59.6427C143.346 59.5744 142.2 57.8121 142.513 56.8421C142.664 56.3639 143.127 55.8448 143.919 55.5852C143.148 55.5169 142.207 55.4486 141.033 55.2368C139.867 55.0182 138.871 54.745 137.991 54.4308C132.63 55.2027 132.446 57.9965 129.07 60.3395L129.063 60.3463Z" fill="#FFC635"/>
<path d="M142.507 56.8558C142.2 57.8189 143.339 59.5881 145.44 59.6564C146.047 59.6769 146.552 59.5471 146.954 59.3422C147.036 58.6728 147.009 58.0717 146.872 57.6003C146.381 55.9131 145.542 55.7492 143.905 55.6057C143.114 55.8653 142.65 56.3844 142.5 56.8626L142.507 56.8558Z" fill="#200041"/>
<path d="M129.48 51.3569C130.394 51.1793 131.853 50.6602 130.366 47.6341C129.159 45.175 127.87 44.1572 126.608 44.2528C124.419 44.4099 123.989 46.145 125.878 49.9634C126.206 50.6192 127.399 51.7668 129.48 51.3569ZM130.503 49.376C130.571 49.9908 130.216 50.5714 129.718 50.667C129.221 50.7627 128.764 50.3391 128.695 49.7244C128.627 49.1096 128.982 48.529 129.48 48.4333C129.978 48.3377 130.435 48.7612 130.503 49.376Z" fill="url(#paint10_linear_22499_9920)"/>
<path d="M129.479 48.4401C128.981 48.5357 128.634 49.1164 128.695 49.7311C128.763 50.3459 129.22 50.7694 129.718 50.6738C130.216 50.5782 130.564 49.9976 130.502 49.3828C130.434 48.768 129.977 48.3445 129.479 48.4401Z" fill="white"/>
<path opacity="0.8" d="M120.333 103.422C118.3 90.4021 124.548 75.8661 131.246 72.84C132.542 72.2525 133.913 71.6378 135.188 71.023C128.709 69.1513 125.223 61.9106 125.223 61.9106C125.223 61.9106 125.319 61.9106 125.496 61.8969C123.232 61.7603 120.681 61.2753 118.034 60.4556C109.972 57.9555 107.967 57.1973 100.642 55.6057C89.2718 53.1398 84.0472 57.2383 74.6007 61.1524C73.598 61.7945 71.4086 63.5569 72.2339 65.3056C72.9091 66.7332 76.0535 64.8615 76.1558 66.4463C76.2172 67.4504 72.916 67.8876 73.9936 69.8686C75.4464 72.5531 80.6778 71.1801 79.8525 77.6489C78.9863 84.4183 72.193 107.582 72.193 107.582C72.193 107.582 77.1993 111.434 77.4653 113.9C78.1201 114.966 79.0204 116.585 80.0094 119.625C81.7896 125.082 82.3489 128.874 82.5262 128.047C82.724 127.098 82.5262 125.526 82.6968 124.099C83.0378 121.168 83.0378 118.163 83.0378 118.163C83.0378 118.163 84.3269 120.875 84.818 123.812C85.2886 126.653 85.9979 129.782 85.9979 129.782C85.9979 129.782 86.4549 125.95 86.8437 125.479C93.1528 138.614 94.2646 151.682 94.401 160.815C94.4555 160.767 94.4828 160.719 94.4828 160.664C94.4828 145.998 93.9099 120.861 92.8527 113.852C93.0437 115.26 94.4146 115.895 96.1812 123.327C97.5044 128.915 97.5316 130.807 97.7022 129.98C97.8999 129.031 98.1046 124.351 98.2683 122.924C98.6093 119.993 98.7594 115.806 98.7594 115.806C98.7594 115.806 99.8984 119.7 100.389 122.637C100.86 125.479 101.795 131.797 101.795 131.797C101.795 131.797 105.014 119.98 105.403 119.515C106.207 135.902 104.059 152.467 102.94 162.857C106.596 161.491 111.759 162.235 114.57 162.543C114.74 162.563 114.904 162.577 115.074 162.597C110.327 159.237 107.108 153.772 107.817 145.514C108.84 133.6 118.089 124.864 128.716 125.048" fill="url(#paint11_linear_22499_9920)"/>
<path d="M123.143 38.4466C122.7 30.4477 121.465 17.1275 118.164 17.0592C114.672 16.9909 110.375 23.2548 106.951 29.3001C106.814 28.0842 106.658 26.6702 106.303 24.9215C105.075 18.7942 104.298 15.5701 101.992 15.652C99.5095 15.7408 95.574 20.3722 93.2823 24.4843C89.6128 31.0761 89.3536 32.7702 88.4601 35.7757C88.276 36.3837 88.0372 37.06 87.7644 37.7772C86.3116 41.541 83.7812 46.3704 82.6558 47.9142C80.0366 51.5004 72.6226 55.7697 72.4657 59.3217C72.3975 60.8655 76.2853 60.2371 74.9212 60.9611C74.8393 61.0021 74.7302 61.0704 74.6074 61.1524C84.054 57.2451 89.2786 53.1398 100.649 55.6057C107.974 57.1973 109.972 57.9556 118.041 60.4556C120.688 61.2754 123.239 61.7603 125.503 61.897C126.028 61.8423 127.29 61.5759 129.07 60.3464C132.446 58.0034 132.631 55.2095 137.992 54.4377C130.277 51.6507 132.624 45.1955 123.143 38.4466ZM129.479 51.3569C127.406 51.7668 126.206 50.6192 125.878 49.9634C123.989 46.145 124.418 44.4168 126.608 44.2528C127.87 44.1572 129.159 45.1818 130.366 47.6341C131.853 50.6602 130.387 51.1725 129.479 51.3569Z" fill="url(#paint12_linear_22499_9920)"/>
<path d="M112.592 34.2798C115.593 34.874 119.467 35.9601 122.468 37.9821C122.7 38.1392 122.918 38.2963 123.143 38.4534C122.7 30.4545 121.465 17.1343 118.164 17.066C114.672 16.9977 110.375 23.2616 106.951 29.3069C107.142 30.9941 107.292 32.292 107.872 33.5489C107.899 33.6103 109.898 33.7469 112.592 34.2798Z" fill="url(#paint13_linear_22499_9920)"/>
<path d="M116.466 49.6628C117.011 52.2176 115.074 52.3269 113.99 52.3747C111.91 52.4771 110.621 52.5523 109.891 49.2051C108.963 44.9495 111.03 43.6995 113.206 44.2938C114.59 44.6695 115.722 46.1722 116.466 49.656V49.6628Z" fill="url(#paint14_linear_22499_9920)"/>
<path d="M115.303 51.0691C115.819 50.961 116.137 50.3914 116.013 49.7968C115.889 49.2023 115.37 48.808 114.854 48.9161C114.337 49.0242 114.02 49.5938 114.144 50.1883C114.268 50.7828 114.787 51.1772 115.303 51.0691Z" fill="white"/>
<path d="M141.723 36.37L72.7591 47.3472L40.6816 60.5307L70.8902 22.1823C71.1358 21.8749 71.4427 21.629 71.7974 21.4582L103.431 6.48499L141.723 36.37Z" fill="url(#paint15_linear_22499_9920)"/>
<path d="M146.231 34.1021L72.6567 45.3457L102.327 7.37297C103.336 6.08194 105.164 5.80187 106.514 6.73087L146.231 34.109V34.1021Z" fill="url(#paint16_linear_22499_9920)"/>
<path d="M40.7364 60.4829L72.6502 45.3525L73.1481 48.4059C73.1617 48.4674 73.1276 48.5289 73.0662 48.5562L41.8959 63.345C41.589 63.4885 41.1525 63.1879 41.0843 62.8532L40.6273 60.681C40.6068 60.599 40.6477 60.517 40.7296 60.4829H40.7364Z" fill="url(#paint17_linear_22499_9920)"/>
<path d="M146.217 34.109L72.6567 45.3526L73.1546 48.406C73.1751 48.4743 73.0864 48.5495 73.0864 48.5495L146.06 37.2854C146.361 37.2375 146.572 36.9711 146.545 36.6706L146.333 34.1978C146.333 34.1363 146.272 34.0954 146.217 34.1022V34.109Z" fill="url(#paint18_linear_22499_9920)"/>
<path d="M128.409 101.98H54.4183C52.7064 101.98 51.3218 103.367 51.3218 105.082V169.647C51.3218 171.362 52.7064 172.748 54.4183 172.748H128.409C130.489 172.748 132.146 171.04 132.146 169.005V105.724C132.146 103.688 130.489 101.98 128.409 101.98Z" fill="url(#paint19_linear_22499_9920)"/>
<path d="M51.3219 169.64V105.075C51.3219 103.36 52.7065 101.974 54.4185 101.974H30.7509C28.6911 101.974 27.0132 103.647 27.0132 105.717V168.998C27.0132 171.061 28.6842 172.741 30.7509 172.741H54.4185C52.7065 172.741 51.3219 171.355 51.3219 169.64Z" fill="url(#paint20_linear_22499_9920)"/>
<path d="M86.5778 123.539H82.7241C84.3065 123.539 85.5956 124.823 85.5956 126.414V172.741H89.4424V126.401C89.4424 124.823 88.1602 123.539 86.5846 123.539H86.5778Z" fill="url(#paint21_linear_22499_9920)"/>
<path d="M82.7241 123.539H69.9217C68.5644 123.539 67.4595 124.645 67.4595 126.005V172.741H85.5955V126.414C85.5955 124.83 84.3133 123.539 82.7241 123.539Z" fill="url(#paint22_linear_22499_9920)"/>
<path d="M118.628 123.566H114.393C116.036 123.566 117.366 124.898 117.366 126.544V144.216C117.366 145.862 116.036 147.194 114.393 147.194H118.424C119.979 147.194 121.234 145.937 121.234 144.38V126.182C121.234 124.741 120.067 123.573 118.628 123.573V123.566Z" fill="url(#paint23_linear_22499_9920)"/>
<path d="M114.392 123.566H104.236C102.654 123.566 101.378 124.85 101.378 126.428V144.878C101.378 146.156 102.408 147.187 103.684 147.187H114.392C116.036 147.187 117.366 145.855 117.366 144.209V126.537C117.366 124.891 116.036 123.559 114.392 123.559V123.566Z" fill="url(#paint24_linear_22499_9920)"/>
</g>
<defs>
<linearGradient id="paint0_linear_22499_9920" x1="45.0743" y1="55.4908" x2="38.4392" y2="150.078" gradientUnits="userSpaceOnUse">
<stop offset="0.01" stop-color="#FFEB49"/>
<stop offset="0.24" stop-color="#FF9B1D"/>
<stop offset="0.41" stop-color="#FF6600"/>
<stop offset="0.5" stop-color="#FD4835"/>
<stop offset="0.59" stop-color="#FB3161"/>
<stop offset="0.63" stop-color="#FB2872"/>
</linearGradient>
<linearGradient id="paint1_linear_22499_9920" x1="33.9184" y1="71.3301" x2="65.2989" y2="101.906" gradientUnits="userSpaceOnUse">
<stop stop-color="#FFD400"/>
<stop offset="0.05" stop-color="#FFD100" stop-opacity="0.96"/>
<stop offset="0.14" stop-color="#FFCB00" stop-opacity="0.84"/>
<stop offset="0.25" stop-color="#FFC000" stop-opacity="0.66"/>
<stop offset="0.38" stop-color="#FFB200" stop-opacity="0.4"/>
<stop offset="0.54" stop-color="#FFA000" stop-opacity="0.07"/>
<stop offset="0.57" stop-color="#FF9C00" stop-opacity="0"/>
</linearGradient>
<linearGradient id="paint2_linear_22499_9920" x1="95.6545" y1="58.1347" x2="90.4559" y2="37.0768" gradientUnits="userSpaceOnUse">
<stop stop-color="#B31CCC"/>
<stop offset="0.05" stop-color="#9C19C8"/>
<stop offset="0.3" stop-color="#2C0CB9"/>
<stop offset="0.41" stop-color="#0007B3"/>
<stop offset="0.99" stop-color="#000704"/>
</linearGradient>
<linearGradient id="paint3_linear_22499_9920" x1="114.092" y1="33.7653" x2="85.863" y2="158.913" gradientUnits="userSpaceOnUse">
<stop stop-color="#FF6600"/>
<stop offset="0.33" stop-color="#FFB029"/>
<stop offset="0.46" stop-color="#FF9218"/>
<stop offset="0.63" stop-color="#FF6600"/>
<stop offset="1" stop-color="#FB2872"/>
</linearGradient>
<linearGradient id="paint4_linear_22499_9920" x1="109.731" y1="31.5683" x2="80.1208" y2="162.826" gradientUnits="userSpaceOnUse">
<stop stop-color="#FF6600"/>
<stop offset="0.33" stop-color="#FFB029"/>
<stop offset="0.46" stop-color="#FF9218"/>
<stop offset="0.63" stop-color="#FF6600"/>
<stop offset="1" stop-color="#FB2872"/>
</linearGradient>
<linearGradient id="paint5_linear_22499_9920" x1="85.0945" y1="115.924" x2="88.1736" y2="191.984" gradientUnits="userSpaceOnUse">
<stop offset="0.02" stop-color="#D81F60" stop-opacity="0"/>
<stop offset="0.49" stop-color="#D81F60"/>
<stop offset="0.58" stop-color="#A31F4D"/>
<stop offset="0.68" stop-color="#731F3C"/>
<stop offset="0.78" stop-color="#4D1F2F"/>
<stop offset="0.86" stop-color="#321F25"/>
<stop offset="0.94" stop-color="#211F20"/>
<stop offset="1" stop-color="#1C1F1E"/>
</linearGradient>
<linearGradient id="paint6_linear_22499_9920" x1="122.416" y1="48.0394" x2="83.8988" y2="142.072" gradientUnits="userSpaceOnUse">
<stop offset="0.05" stop-color="#FFEB49"/>
<stop offset="0.59" stop-color="#FF8C15" stop-opacity="0.29"/>
<stop offset="0.83" stop-color="#FF6600" stop-opacity="0"/>
</linearGradient>
<linearGradient id="paint7_linear_22499_9920" x1="121.335" y1="34.1899" x2="91.7261" y2="165.441" gradientUnits="userSpaceOnUse">
<stop stop-color="#FF6600"/>
<stop offset="0.33" stop-color="#FFB029"/>
<stop offset="0.46" stop-color="#FF9218"/>
<stop offset="0.63" stop-color="#FF6600"/>
<stop offset="1" stop-color="#FB2872"/>
</linearGradient>
<linearGradient id="paint8_linear_22499_9920" x1="98.8165" y1="118.003" x2="101.807" y2="191.707" gradientUnits="userSpaceOnUse">
<stop offset="0.02" stop-color="#D81F60" stop-opacity="0"/>
<stop offset="0.49" stop-color="#D81F60"/>
<stop offset="0.5" stop-color="#D11F5D"/>
<stop offset="0.68" stop-color="#841F42"/>
<stop offset="0.83" stop-color="#4C1F2E"/>
<stop offset="0.94" stop-color="#291F22"/>
<stop offset="1" stop-color="#1C1F1E"/>
</linearGradient>
<linearGradient id="paint9_linear_22499_9920" x1="133.018" y1="52.3869" x2="94.5028" y2="146.413" gradientUnits="userSpaceOnUse">
<stop offset="0.05" stop-color="#FFEB49"/>
<stop offset="0.59" stop-color="#FF8C15" stop-opacity="0.29"/>
<stop offset="0.83" stop-color="#FF6600" stop-opacity="0"/>
</linearGradient>
<linearGradient id="paint10_linear_22499_9920" x1="125.413" y1="42.7245" x2="127.916" y2="50.5595" gradientUnits="userSpaceOnUse">
<stop offset="0.16" stop-color="#A02FB9"/>
<stop offset="0.88" stop-color="#00073B"/>
</linearGradient>
<linearGradient id="paint11_linear_22499_9920" x1="99.762" y1="49.6492" x2="107.431" y2="126.795" gradientUnits="userSpaceOnUse">
<stop offset="0.02" stop-color="#FFEB49"/>
<stop offset="0.08" stop-color="#FFE445" stop-opacity="0.95"/>
<stop offset="0.19" stop-color="#FFD23B" stop-opacity="0.82"/>
<stop offset="0.34" stop-color="#FFB52B" stop-opacity="0.6"/>
<stop offset="0.52" stop-color="#FF8E16" stop-opacity="0.3"/>
<stop offset="0.68" stop-color="#FF6600" stop-opacity="0"/>
</linearGradient>
<linearGradient id="paint12_linear_22499_9920" x1="112.981" y1="21.1271" x2="62.8391" y2="251.136" gradientUnits="userSpaceOnUse">
<stop offset="0.08" stop-color="#FF6600"/>
<stop offset="0.19" stop-color="#FFB029"/>
<stop offset="0.31" stop-color="#FF9118"/>
<stop offset="0.43" stop-color="#FF790A"/>
<stop offset="0.53" stop-color="#FF6B02"/>
<stop offset="0.63" stop-color="#FF6600"/>
<stop offset="1" stop-color="#FB2872"/>
</linearGradient>
<linearGradient id="paint13_linear_22499_9920" x1="127.801" y1="10.2535" x2="93.9764" y2="72.9025" gradientUnits="userSpaceOnUse">
<stop offset="0.09" stop-color="#BE0449" stop-opacity="0"/>
<stop offset="0.2" stop-color="#BE0449" stop-opacity="0.17"/>
<stop offset="0.33" stop-color="#BE0449" stop-opacity="0.33"/>
<stop offset="0.47" stop-color="#BE0449" stop-opacity="0.45"/>
<stop offset="0.62" stop-color="#BE0449" stop-opacity="0.53"/>
<stop offset="0.78" stop-color="#BE0449" stop-opacity="0.58"/>
<stop offset="1" stop-color="#BE0449" stop-opacity="0.6"/>
</linearGradient>
<linearGradient id="paint14_linear_22499_9920" x1="110.667" y1="42.596" x2="113.21" y2="51.3892" gradientUnits="userSpaceOnUse">
<stop offset="0.16" stop-color="#A02FB9"/>
<stop offset="0.88" stop-color="#00073B"/>
</linearGradient>
<linearGradient id="paint15_linear_22499_9920" x1="52.1642" y1="5.95478" x2="94.7836" y2="52.1934" gradientUnits="userSpaceOnUse">
<stop stop-color="#E752FF"/>
<stop offset="0.11" stop-color="#DD4FFF"/>
<stop offset="0.28" stop-color="#C347FF"/>
<stop offset="0.51" stop-color="#983BFF"/>
<stop offset="0.77" stop-color="#5E2AFF"/>
<stop offset="1" stop-color="#271AFF"/>
</linearGradient>
<linearGradient id="paint16_linear_22499_9920" x1="92.1724" y1="8.2043" x2="122.611" y2="63.5559" gradientUnits="userSpaceOnUse">
<stop stop-color="#E752FF"/>
<stop offset="0.11" stop-color="#DD4FFF"/>
<stop offset="0.28" stop-color="#C347FF"/>
<stop offset="0.51" stop-color="#983BFF"/>
<stop offset="0.77" stop-color="#5E2AFF"/>
<stop offset="1" stop-color="#271AFF"/>
</linearGradient>
<linearGradient id="paint17_linear_22499_9920" x1="54.334" y1="35.9508" x2="60.1933" y2="78.1717" gradientUnits="userSpaceOnUse">
<stop stop-color="#E752FF"/>
<stop offset="0.11" stop-color="#DD4FFF"/>
<stop offset="0.28" stop-color="#C347FF"/>
<stop offset="0.51" stop-color="#983BFF"/>
<stop offset="0.77" stop-color="#5E2AFF"/>
<stop offset="1" stop-color="#271AFF"/>
</linearGradient>
<linearGradient id="paint18_linear_22499_9920" x1="109.29" y1="39.101" x2="115.576" y2="72.0375" gradientUnits="userSpaceOnUse">
<stop stop-color="#E752FF"/>
<stop offset="0.11" stop-color="#DD4FFF"/>
<stop offset="0.28" stop-color="#C347FF"/>
<stop offset="0.51" stop-color="#983BFF"/>
<stop offset="0.77" stop-color="#5E2AFF"/>
<stop offset="1" stop-color="#271AFF"/>
</linearGradient>
<linearGradient id="paint19_linear_22499_9920" x1="52.5631" y1="98.326" x2="173.708" y2="219.29" gradientUnits="userSpaceOnUse">
<stop stop-color="#E752FF"/>
<stop offset="0.1" stop-color="#DD4FFF"/>
<stop offset="0.27" stop-color="#C347FF"/>
<stop offset="0.5" stop-color="#983BFF"/>
<stop offset="0.75" stop-color="#5E2AFF"/>
<stop offset="0.97" stop-color="#271AFF"/>
</linearGradient>
<linearGradient id="paint20_linear_22499_9920" x1="20.6222" y1="54.5605" x2="55.5263" y2="195.115" gradientUnits="userSpaceOnUse">
<stop stop-color="#E752FF"/>
<stop offset="0.11" stop-color="#DD4FFF"/>
<stop offset="0.28" stop-color="#C347FF"/>
<stop offset="0.51" stop-color="#983BFF"/>
<stop offset="0.77" stop-color="#5E2AFF"/>
<stop offset="1" stop-color="#271AFF"/>
</linearGradient>
<linearGradient id="paint21_linear_22499_9920" x1="131.921" y1="209.614" x2="62.8579" y2="115.782" gradientUnits="userSpaceOnUse">
<stop stop-color="#E752FF"/>
<stop offset="0.11" stop-color="#DD4FFF"/>
<stop offset="0.28" stop-color="#C347FF"/>
<stop offset="0.51" stop-color="#983BFF"/>
<stop offset="0.77" stop-color="#5E2AFF"/>
<stop offset="1" stop-color="#271AFF"/>
</linearGradient>
<linearGradient id="paint22_linear_22499_9920" x1="59.5134" y1="196.096" x2="90.9852" y2="109.504" gradientUnits="userSpaceOnUse">
<stop stop-color="#A030B9"/>
<stop offset="0.05" stop-color="#982EB8"/>
<stop offset="0.12" stop-color="#8429B7"/>
<stop offset="0.21" stop-color="#6420B6"/>
<stop offset="0.31" stop-color="#3614B5"/>
<stop offset="0.41" stop-color="#0007B3"/>
<stop offset="0.99" stop-color="#00073A"/>
</linearGradient>
<linearGradient id="paint23_linear_22499_9920" x1="129.568" y1="178.513" x2="114.22" y2="123.824" gradientUnits="userSpaceOnUse">
<stop stop-color="#E752FF"/>
<stop offset="0.11" stop-color="#DD4FFF"/>
<stop offset="0.28" stop-color="#C347FF"/>
<stop offset="0.51" stop-color="#983BFF"/>
<stop offset="0.77" stop-color="#5E2AFF"/>
<stop offset="1" stop-color="#271AFF"/>
</linearGradient>
<linearGradient id="paint24_linear_22499_9920" x1="123.736" y1="152.522" x2="99.4879" y2="124.032" gradientUnits="userSpaceOnUse">
<stop stop-color="#E752FF"/>
<stop offset="0.13" stop-color="#9C39E6"/>
<stop offset="0.32" stop-color="#2C15C1"/>
<stop offset="0.41" stop-color="#0007B3"/>
<stop offset="0.99" stop-color="#00073A"/>
</linearGradient>
</defs>
</svg>
